<svg width="736" height="536" viewBox="0 0 736 536" fill="none" xmlns="http://www.w3.org/2000/svg">
<path d="M617.823 68.5178L596.62 44.2819M596.62 44.2819L577.572 68.5178H596.62V44.2819Z" stroke="#0C567B" stroke-width="3.86235" stroke-miterlimit="1.5" stroke-linecap="round" stroke-linejoin="round"/>
<path d="M596.619 68.519H577.572V94.2201L564.594 75.5274L548.556 94.2201H648.342L631.232 74.773L617.823 94.2201V159.482L631.997 139.502L649.76 159.482H577.572M577.572 159.482L565.517 137.393L547.934 159.482H577.572ZM577.572 159.482V193.932L572.731 223.301L562.957 202.478L541.123 222.513L622.951 222.851L630.379 202.028L650.187 222.286" stroke="#0C567B" stroke-width="3.86235" stroke-miterlimit="1.5" stroke-linecap="round" stroke-linejoin="round"/>
<path fill-rule="evenodd" clip-rule="evenodd" d="M595.683 14.1786L577.572 68.5191H617.823L595.683 14.1786Z" stroke="#0C567B" stroke-width="3.86235" stroke-miterlimit="1.5" stroke-linecap="round" stroke-linejoin="round"/>
<path fill-rule="evenodd" clip-rule="evenodd" d="M577.572 68.519L519.938 94.2201H673.301L617.823 68.519L577.572 94.2201V68.519Z" stroke="#0C567B" stroke-width="3.86235" stroke-miterlimit="1.5" stroke-linecap="round" stroke-linejoin="round"/>
<path fill-rule="evenodd" clip-rule="evenodd" d="M617.823 131.68V68.519L577.572 94.2201V131.68H617.823Z" stroke="#0C567B" stroke-width="3.86235" stroke-miterlimit="1.5" stroke-linecap="round" stroke-linejoin="round"/>
<path fill-rule="evenodd" clip-rule="evenodd" d="M577.572 131.679L617.823 94.2191H577.572L617.823 131.679L673.301 159.481H519.938L577.572 131.679Z" stroke="#0C567B" stroke-width="3.86235" stroke-miterlimit="1.5" stroke-linecap="round" stroke-linejoin="round"/>
<path fill-rule="evenodd" clip-rule="evenodd" d="M617.823 131.68V159.482L577.572 131.68H617.823Z" stroke="#0C567B" stroke-width="3.86235" stroke-miterlimit="1.5" stroke-linecap="round" stroke-linejoin="round"/>
<path d="M577.572 155.137V131.68V194.688M577.572 194.688L617.823 195.12M577.572 194.688L617.823 159.482M577.572 194.688L519.938 223.454H673.301L617.823 195.12M577.572 194.688L571.888 223.454M577.572 194.688L622.984 223.454M617.823 195.12L577.572 159.482H617.823M617.823 195.12V159.482M617.823 195.12L571.888 223.454M617.823 195.12L622.984 223.454M571.888 223.454L564.59 282.28M571.888 223.454L628.135 282.28M622.984 223.454L564.59 282.28M622.984 223.454L628.135 282.28M564.59 282.28H628.135M564.59 282.28L639.194 349.521M564.59 282.28L554.607 348.232M628.135 282.28L639.194 349.521M628.135 282.28L554.607 348.232M639.194 349.521L554.607 348.232M639.194 349.521L541.341 430.375L554.607 348.232M639.194 349.521L650.674 428.66M554.607 348.232L650.674 428.66M554.607 348.232L533.543 478.467L597.696 384.305L658.571 479.153L650.674 428.66" stroke="#0C567B" stroke-width="3.86235" stroke-miterlimit="1.5" stroke-linecap="round" stroke-linejoin="round"/>
<path d="M595.683 14.1786L596.619 44.2831" stroke="#0C567B" stroke-width="3.86235" stroke-miterlimit="1.5" stroke-linecap="round" stroke-linejoin="round"/>
<path d="M209.168 274.595L199.37 263.395M199.37 263.395L190.567 274.595H199.37V263.395Z" stroke="#0C567B" stroke-width="2.3184" stroke-miterlimit="1.5" stroke-linecap="round" stroke-linejoin="round"/>
<path d="M199.37 274.596H190.567V286.473L184.57 277.835L177.158 286.473H223.271L215.365 277.486L209.168 286.473V316.632L215.718 307.399L223.927 316.632H190.567M190.567 316.632L184.996 306.424L176.871 316.632H190.567ZM190.567 316.632V332.552L188.33 346.124L183.814 336.501L173.724 345.76L211.538 345.916L214.971 336.293L224.124 345.655" stroke="#0C567B" stroke-width="2.3184" stroke-miterlimit="1.5" stroke-linecap="round" stroke-linejoin="round"/>
<path fill-rule="evenodd" clip-rule="evenodd" d="M198.937 249.484L190.567 274.596H209.168L198.937 249.484Z" stroke="#0C567B" stroke-width="2.3184" stroke-miterlimit="1.5" stroke-linecap="round" stroke-linejoin="round"/>
<path fill-rule="evenodd" clip-rule="evenodd" d="M190.567 274.596L163.934 286.473H234.806L209.168 274.596L190.567 286.473V274.596Z" stroke="#0C567B" stroke-width="2.3184" stroke-miterlimit="1.5" stroke-linecap="round" stroke-linejoin="round"/>
<path fill-rule="evenodd" clip-rule="evenodd" d="M209.168 303.784V274.596L190.567 286.473V303.784H209.168Z" stroke="#0C567B" stroke-width="2.3184" stroke-miterlimit="1.5" stroke-linecap="round" stroke-linejoin="round"/>
<path fill-rule="evenodd" clip-rule="evenodd" d="M190.567 303.783L209.168 286.472H190.567L209.168 303.783L234.806 316.631H163.934L190.567 303.783Z" stroke="#0C567B" stroke-width="2.3184" stroke-miterlimit="1.5" stroke-linecap="round" stroke-linejoin="round"/>
<path fill-rule="evenodd" clip-rule="evenodd" d="M209.168 303.784V316.631L190.567 303.784H209.168Z" stroke="#0C567B" stroke-width="2.3184" stroke-miterlimit="1.5" stroke-linecap="round" stroke-linejoin="round"/>
<path d="M190.567 314.624V303.784V332.901M190.567 332.901L209.168 333.1M190.567 332.901L209.168 316.631M190.567 332.901L163.934 346.194H234.806L209.168 333.1M190.567 332.901L187.94 346.194M190.567 332.901L211.553 346.194M209.168 333.1L190.567 316.631H209.168M209.168 333.1V316.631M209.168 333.1L187.94 346.194M209.168 333.1L211.553 346.194M187.94 346.194L184.568 373.379M187.94 346.194L213.934 373.379M211.553 346.194L184.568 373.379M211.553 346.194L213.934 373.379M184.568 373.379H213.934M184.568 373.379L219.044 404.452M184.568 373.379L179.955 403.857M213.934 373.379L219.044 404.452M213.934 373.379L179.955 403.857M219.044 404.452L179.955 403.857M219.044 404.452L173.859 441.817L179.955 403.857M219.044 404.452L224.349 441.024M179.955 403.857L224.349 441.024M179.955 403.857L170.22 464.041L199.867 420.527L227.998 464.358L224.349 441.024" stroke="#0C567B" stroke-width="2.3184" stroke-miterlimit="1.5" stroke-linecap="round" stroke-linejoin="round"/>
<path d="M198.937 249.484L199.369 263.396" stroke="#0C567B" stroke-width="2.3184" stroke-miterlimit="1.5" stroke-linecap="round" stroke-linejoin="round"/>
<path d="M164.395 287.701C211.128 360.292 345.324 282.441 434.964 202.948C485.776 157.886 522.271 112.298 520.397 93.2908" stroke="#0C567B" stroke-width="1.99841" stroke-miterlimit="1.5" stroke-linecap="round" stroke-linejoin="round"/>
<path d="M164.83 318.022C213.633 381.232 347.417 317.534 436.172 251.439C486.483 213.972 522.324 175.737 520.01 159.416" stroke="#0C567B" stroke-width="1.9873" stroke-miterlimit="1.5" stroke-linecap="round" stroke-linejoin="round"/>
<path d="M164.205 346.981C215.208 401.356 349.127 351.114 437.378 297.736C487.403 267.477 522.754 236.213 520.004 222.429" stroke="#0C567B" stroke-width="1.9369" stroke-miterlimit="1.5" stroke-linecap="round" stroke-linejoin="round"/>
<path d="M233.817 285.83C294.392 362.821 459.708 285.807 569.306 205.74C631.432 160.352 675.655 113.986 672.74 94.1389" stroke="#0C567B" stroke-width="1.98245" stroke-miterlimit="1.5" stroke-linecap="round" stroke-linejoin="round"/>
<path d="M233.19 317.697C295.712 385.945 460.683 322.13 569.481 254.558C631.153 216.254 674.775 176.744 671.449 159.401" stroke="#0C567B" stroke-width="1.94534" stroke-miterlimit="1.5" stroke-linecap="round" stroke-linejoin="round"/>
<path d="M234.143 346.708C298.657 406.076 463.304 355.674 571.306 300.797C632.527 269.689 675.546 237.146 671.8 222.347" stroke="#0C567B" stroke-width="1.87578" stroke-miterlimit="1.5" stroke-linecap="round" stroke-linejoin="round"/>
<path d="M548.413 177.078H447.727V475.514H548.413V177.078Z" fill="#03364E"/>
<path d="M475.434 188.178H461.425V197.871H475.434V188.178Z" fill="#03364E"/>
<path d="M496.198 188.178H482.188V197.871H496.198V188.178Z" fill="#03364E"/>
<path d="M475.434 206.355H461.425V216.048H475.434V206.355Z" fill="#03364E"/>
<path d="M496.198 206.355H482.188V216.048H496.198V206.355Z" fill="#03364E"/>
<path d="M475.434 224.527H461.425V234.221H475.434V224.527Z" fill="#03364E"/>
<path d="M496.198 224.527H482.188V234.221H496.198V224.527Z" fill="#03364E"/>
<path d="M475.434 242.703H461.425V252.396H475.434V242.703Z" fill="#03364E"/>
<path d="M496.198 242.703H482.188V252.396H496.198V242.703Z" fill="#03364E"/>
<path d="M475.434 260.88H461.425V270.573H475.434V260.88Z" fill="#03364E"/>
<path d="M496.198 260.88H482.188V270.573H496.198V260.88Z" fill="#03364E"/>
<path d="M475.434 279.055H461.425V288.749H475.434V279.055Z" fill="#03364E"/>
<path d="M496.198 279.055H482.188V288.749H496.198V279.055Z" fill="#03364E"/>
<path d="M475.434 297.23H461.425V306.923H475.434V297.23Z" fill="#03364E"/>
<path d="M496.198 297.23H482.188V306.923H496.198V297.23Z" fill="#03364E"/>
<path d="M475.434 315.405H461.425V325.099H475.434V315.405Z" fill="#03364E"/>
<path d="M496.198 315.405H482.188V325.099H496.198V315.405Z" fill="#03364E"/>
<path d="M475.434 333.58H461.425V343.274H475.434V333.58Z" fill="#03364E"/>
<path d="M496.198 333.58H482.188V343.274H496.198V333.58Z" fill="#03364E"/>
<path d="M475.434 351.756H461.425V361.449H475.434V351.756Z" fill="#03364E"/>
<path d="M496.198 351.756H482.188V361.449H496.198V351.756Z" fill="#03364E"/>
<path d="M475.434 369.93H461.425V379.624H475.434V369.93Z" fill="#03364E"/>
<path d="M496.198 369.93H482.188V379.624H496.198V369.93Z" fill="#03364E"/>
<path d="M475.434 388.106H461.425V397.8H475.434V388.106Z" fill="#03364E"/>
<path d="M496.198 388.106H482.188V397.8H496.198V388.106Z" fill="#03364E"/>
<path d="M475.434 406.279H461.425V415.973H475.434V406.279Z" fill="#03364E"/>
<path d="M496.198 406.279H482.188V415.973H496.198V406.279Z" fill="#03364E"/>
<path d="M475.434 424.454H461.425V434.148H475.434V424.454Z" fill="#03364E"/>
<path d="M496.198 424.454H482.188V434.148H496.198V424.454Z" fill="#03364E"/>
<path d="M475.434 442.631H461.425V452.324H475.434V442.631Z" fill="#03364E"/>
<path d="M496.198 442.631H482.188V452.324H496.198V442.631Z" fill="#03364E"/>
<path d="M516.953 188.178H502.943V197.871H516.953V188.178Z" fill="#03364E"/>
<path d="M537.716 188.178H523.707V197.871H537.716V188.178Z" fill="#03364E"/>
<path d="M516.953 206.355H502.943V216.048H516.953V206.355Z" fill="#03364E"/>
<path d="M537.716 206.355H523.707V216.048H537.716V206.355Z" fill="#03364E"/>
<path d="M516.953 224.527H502.943V234.221H516.953V224.527Z" fill="#03364E"/>
<path d="M537.716 224.527H523.707V234.221H537.716V224.527Z" fill="#03364E"/>
<path d="M516.953 242.703H502.943V252.396H516.953V242.703Z" fill="#03364E"/>
<path d="M537.716 242.703H523.707V252.396H537.716V242.703Z" fill="#03364E"/>
<path d="M516.953 260.88H502.943V270.573H516.953V260.88Z" fill="#03364E"/>
<path d="M537.716 260.88H523.707V270.573H537.716V260.88Z" fill="#03364E"/>
<path d="M516.953 279.055H502.943V288.749H516.953V279.055Z" fill="#03364E"/>
<path d="M537.716 279.055H523.707V288.749H537.716V279.055Z" fill="#03364E"/>
<path d="M516.953 297.23H502.943V306.923H516.953V297.23Z" fill="#03364E"/>
<path d="M537.716 297.23H523.707V306.923H537.716V297.23Z" fill="#03364E"/>
<path d="M516.953 315.405H502.943V325.099H516.953V315.405Z" fill="#03364E"/>
<path d="M537.716 315.405H523.707V325.099H537.716V315.405Z" fill="#03364E"/>
<path d="M516.953 333.58H502.943V343.274H516.953V333.58Z" fill="#03364E"/>
<path d="M537.716 333.58H523.707V343.274H537.716V333.58Z" fill="#03364E"/>
<path d="M516.953 351.756H502.943V361.449H516.953V351.756Z" fill="#03364E"/>
<path d="M537.716 351.756H523.707V361.449H537.716V351.756Z" fill="#03364E"/>
<path d="M516.953 369.93H502.943V379.624H516.953V369.93Z" fill="#03364E"/>
<path d="M537.716 369.93H523.707V379.624H537.716V369.93Z" fill="#03364E"/>
<path d="M516.953 388.106H502.943V397.8H516.953V388.106Z" fill="#03364E"/>
<path d="M537.716 388.106H523.707V397.8H537.716V388.106Z" fill="#03364E"/>
<path d="M516.953 406.279H502.943V415.973H516.953V406.279Z" fill="#03364E"/>
<path d="M537.716 406.279H523.707V415.973H537.716V406.279Z" fill="#03364E"/>
<path d="M516.953 424.454H502.943V434.148H516.953V424.454Z" fill="#03364E"/>
<path d="M537.716 424.454H523.707V434.148H537.716V424.454Z" fill="#03364E"/>
<path d="M516.953 442.631H502.943V452.324H516.953V442.631Z" fill="#03364E"/>
<path d="M537.716 442.631H523.707V452.324H537.716V442.631Z" fill="#03364E"/>
<path d="M370.29 108.775H268.815V409.543H370.29V108.775Z" fill="#03364E"/>
<path d="M296.739 119.956H282.62V129.725H296.739V119.956Z" fill="#03364E"/>
<path d="M317.665 119.956H303.546V129.725H317.665V119.956Z" fill="#03364E"/>
<path d="M296.739 138.277H282.62V148.046H296.739V138.277Z" fill="#03364E"/>
<path d="M317.665 138.277H303.546V148.046H317.665V138.277Z" fill="#03364E"/>
<path d="M296.739 156.594H282.62V166.363H296.739V156.594Z" fill="#03364E"/>
<path d="M317.665 156.594H303.546V166.363H317.665V156.594Z" fill="#03364E"/>
<path d="M296.739 174.91H282.62V184.68H296.739V174.91Z" fill="#03364E"/>
<path d="M317.665 174.91H303.546V184.68H317.665V174.91Z" fill="#03364E"/>
<path d="M296.739 193.229H282.62V202.998H296.739V193.229Z" fill="#03364E"/>
<path d="M317.665 193.229H303.546V202.998H317.665V193.229Z" fill="#03364E"/>
<path d="M296.739 211.547H282.62V221.316H296.739V211.547Z" fill="#03364E"/>
<path d="M317.665 211.547H303.546V221.316H317.665V211.547Z" fill="#03364E"/>
<path d="M296.739 229.863H282.62V239.632H296.739V229.863Z" fill="#03364E"/>
<path d="M317.665 229.863H303.546V239.632H317.665V229.863Z" fill="#03364E"/>
<path d="M296.739 248.18H282.62V257.949H296.739V248.18Z" fill="#03364E"/>
<path d="M317.665 248.18H303.546V257.949H317.665V248.18Z" fill="#03364E"/>
<path d="M296.739 266.497H282.62V276.266H296.739V266.497Z" fill="#03364E"/>
<path d="M317.665 266.497H303.546V276.266H317.665V266.497Z" fill="#03364E"/>
<path d="M296.739 284.817H282.62V294.587H296.739V284.817Z" fill="#03364E"/>
<path d="M317.665 284.817H303.546V294.586H317.665V284.817Z" fill="#03364E"/>
<path d="M296.739 303.133H282.62V312.903H296.739V303.133Z" fill="#03364E"/>
<path d="M317.665 303.133H303.546V312.903H317.665V303.133Z" fill="#03364E"/>
<path d="M296.739 321.451H282.62V331.221H296.739V321.451Z" fill="#03364E"/>
<path d="M317.665 321.451H303.546V331.221H317.665V321.451Z" fill="#03364E"/>
<path d="M296.739 339.767H282.62V349.536H296.739V339.767Z" fill="#03364E"/>
<path d="M317.665 339.767H303.546V349.536H317.665V339.767Z" fill="#03364E"/>
<path d="M296.739 358.085H282.62V367.854H296.739V358.085Z" fill="#03364E"/>
<path d="M317.665 358.085H303.546V367.854H317.665V358.085Z" fill="#03364E"/>
<path d="M296.739 376.401H282.62V386.171H296.739V376.401Z" fill="#03364E"/>
<path d="M317.665 376.401H303.546V386.17H317.665V376.401Z" fill="#03364E"/>
<path d="M338.582 119.956H324.463V129.725H338.582V119.956Z" fill="#03364E"/>
<path d="M359.507 119.956H345.389V129.725H359.507V119.956Z" fill="#03364E"/>
<path d="M338.582 138.277H324.463V148.046H338.582V138.277Z" fill="#03364E"/>
<path d="M359.507 138.277H345.389V148.046H359.507V138.277Z" fill="#03364E"/>
<path d="M338.582 156.594H324.463V166.363H338.582V156.594Z" fill="#03364E"/>
<path d="M359.507 156.594H345.389V166.363H359.507V156.594Z" fill="#03364E"/>
<path d="M338.582 174.91H324.463V184.68H338.582V174.91Z" fill="#03364E"/>
<path d="M359.507 174.91H345.389V184.68H359.507V174.91Z" fill="#03364E"/>
<path d="M338.582 193.229H324.463V202.998H338.582V193.229Z" fill="#03364E"/>
<path d="M359.507 193.229H345.389V202.998H359.507V193.229Z" fill="#03364E"/>
<path d="M338.582 211.547H324.463V221.316H338.582V211.547Z" fill="#03364E"/>
<path d="M359.507 211.547H345.389V221.316H359.507V211.547Z" fill="#03364E"/>
<path d="M338.582 229.863H324.463V239.632H338.582V229.863Z" fill="#03364E"/>
<path d="M359.507 229.863H345.389V239.632H359.507V229.863Z" fill="#03364E"/>
<path d="M338.582 248.18H324.463V257.949H338.582V248.18Z" fill="#03364E"/>
<path d="M359.507 248.18H345.389V257.949H359.507V248.18Z" fill="#03364E"/>
<path d="M338.582 266.497H324.463V276.266H338.582V266.497Z" fill="#03364E"/>
<path d="M359.507 266.497H345.389V276.266H359.507V266.497Z" fill="#03364E"/>
<path d="M338.582 284.817H324.463V294.587H338.582V284.817Z" fill="#03364E"/>
<path d="M359.507 284.817H345.389V294.586H359.507V284.817Z" fill="#03364E"/>
<path d="M338.582 303.133H324.463V312.903H338.582V303.133Z" fill="#03364E"/>
<path d="M359.507 303.133H345.389V312.903H359.507V303.133Z" fill="#03364E"/>
<path d="M338.582 321.451H324.463V331.221H338.582V321.451Z" fill="#03364E"/>
<path d="M359.507 321.451H345.389V331.221H359.507V321.451Z" fill="#03364E"/>
<path d="M338.582 339.767H324.463V349.536H338.582V339.767Z" fill="#03364E"/>
<path d="M359.507 339.767H345.389V349.536H359.507V339.767Z" fill="#03364E"/>
<path d="M338.582 358.085H324.463V367.854H338.582V358.085Z" fill="#03364E"/>
<path d="M359.507 358.085H345.389V367.854H359.507V358.085Z" fill="#03364E"/>
<path d="M338.582 376.401H324.463V386.171H338.582V376.401Z" fill="#03364E"/>
<path d="M359.507 376.401H345.389V386.17H359.507V376.401Z" fill="#03364E"/>
<path d="M326.467 284.957H211.758V474.271H326.467V284.957Z" fill="#104158" stroke="white" stroke-width="0.950519" stroke-miterlimit="1.5" stroke-linecap="round" stroke-linejoin="round"/>
<path d="M238.329 299.476H224.241V316.317H238.329V299.476Z" fill="#F0FAFF"/>
<path d="M263.615 299.475H249.527V316.317H263.615V299.475Z" fill="#F0FAFF"/>
<path d="M288.852 299.475H274.764V316.317H288.852V299.475Z" fill="#F0FAFF"/>
<path d="M313.98 299.475H299.892V316.317H313.98V299.475Z" fill="#F0FAFF"/>
<path d="M238.329 326.31H224.241V343.152H238.329V326.31Z" fill="#F0FAFF"/>
<path d="M263.615 326.31H249.527V343.152H263.615V326.31Z" fill="#F0FAFF"/>
<path d="M288.852 326.31H274.764V343.152H288.852V326.31Z" fill="#F0FAFF"/>
<path d="M313.98 326.31H299.892V343.152H313.98V326.31Z" fill="#F0FAFF"/>
<path d="M238.329 353.149H224.241V369.99H238.329V353.149Z" fill="#F0FAFF"/>
<path d="M263.615 353.149H249.527V369.99H263.615V353.149Z" fill="#F0FAFF"/>
<path d="M288.852 353.149H274.764V369.99H288.852V353.149Z" fill="#F0FAFF"/>
<path d="M313.98 353.149H299.892V369.99H313.98V353.149Z" fill="#F0FAFF"/>
<path d="M238.329 379.98H224.241V396.822H238.329V379.98Z" fill="#F0FAFF"/>
<path d="M263.615 379.98H249.527V396.822H263.615V379.98Z" fill="#F0FAFF"/>
<path d="M288.852 379.98H274.764V396.822H288.852V379.98Z" fill="#F0FAFF"/>
<path d="M313.98 379.98H299.892V396.822H313.98V379.98Z" fill="#F0FAFF"/>
<path d="M238.329 406.815H224.241V423.657H238.329V406.815Z" fill="#F0FAFF"/>
<path d="M263.615 406.815H249.527V423.656H263.615V406.815Z" fill="#F0FAFF"/>
<path d="M288.852 406.815H274.764V423.656H288.852V406.815Z" fill="#F0FAFF"/>
<path d="M313.98 406.815H299.892V423.656H313.98V406.815Z" fill="#F0FAFF"/>
<path d="M238.329 433.65H224.241V450.491H238.329V433.65Z" fill="#F0FAFF"/>
<path d="M263.615 433.65H249.527V450.491H263.615V433.65Z" fill="#F0FAFF"/>
<path d="M288.852 433.65H274.764V450.491H288.852V433.65Z" fill="#F0FAFF"/>
<path d="M313.98 433.65H299.892V450.491H313.98V433.65Z" fill="#F0FAFF"/>
<path fill-rule="evenodd" clip-rule="evenodd" d="M386.213 129.602V1.67432H491.016V481.197H383.199L386.213 129.602Z" fill="#0C567B" stroke="#0C567B" stroke-width="3.33759" stroke-miterlimit="1.5" stroke-linecap="round" stroke-linejoin="round"/>
<path d="M406.646 17.8666H392.558V34.7079H406.646V17.8666Z" fill="#F0FAFF"/>
<path d="M431.932 17.8665H417.844V34.7078H431.932V17.8665Z" fill="#F0FAFF"/>
<path d="M457.168 17.8665H443.08V34.7078H457.168V17.8665Z" fill="#F0FAFF"/>
<path d="M482.296 17.8665H468.208V34.7078H482.296V17.8665Z" fill="#F0FAFF"/>
<path d="M406.646 44.6993H392.558V61.5406H406.646V44.6993Z" fill="#F0FAFF"/>
<path d="M431.932 44.6993H417.844V61.5406H431.932V44.6993Z" fill="#F0FAFF"/>
<path d="M457.168 44.6993H443.08V61.5406H457.168V44.6993Z" fill="#F0FAFF"/>
<path d="M482.296 44.6993H468.208V61.5406H482.296V44.6993Z" fill="#F0FAFF"/>
<path d="M406.646 71.5353H392.558V88.3767H406.646V71.5353Z" fill="#F0FAFF"/>
<path d="M431.932 71.5353H417.844V88.3767H431.932V71.5353Z" fill="#F0FAFF"/>
<path d="M457.168 71.5353H443.08V88.3767H457.168V71.5353Z" fill="#F0FAFF"/>
<path d="M482.296 71.5353H468.208V88.3767H482.296V71.5353Z" fill="#F0FAFF"/>
<path d="M406.646 98.3705H392.558V115.212H406.646V98.3705Z" fill="#F0FAFF"/>
<path d="M431.932 98.3706H417.844V115.212H431.932V98.3706Z" fill="#F0FAFF"/>
<path d="M457.168 98.3706H443.08V115.212H457.168V98.3706Z" fill="#F0FAFF"/>
<path d="M482.296 98.3706H468.208V115.212H482.296V98.3706Z" fill="#F0FAFF"/>
<path d="M406.646 125.206H392.558V142.048H406.646V125.206Z" fill="#F0FAFF"/>
<path d="M431.932 125.206H417.844V142.047H431.932V125.206Z" fill="#F0FAFF"/>
<path d="M457.168 125.206H443.08V142.047H457.168V125.206Z" fill="#F0FAFF"/>
<path d="M482.296 125.206H468.208V142.047H482.296V125.206Z" fill="#F0FAFF"/>
<path d="M406.646 152.04H392.558V168.881H406.646V152.04Z" fill="#F0FAFF"/>
<path d="M431.932 152.04H417.844V168.881H431.932V152.04Z" fill="#F0FAFF"/>
<path d="M457.168 152.04H443.08V168.881H457.168V152.04Z" fill="#F0FAFF"/>
<path d="M482.296 152.04H468.208V168.881H482.296V152.04Z" fill="#F0FAFF"/>
<path d="M406.646 178.465H392.558V195.306H406.646V178.465Z" fill="#F0FAFF"/>
<path d="M431.932 178.465H417.844V195.306H431.932V178.465Z" fill="#F0FAFF"/>
<path d="M457.168 178.465H443.08V195.306H457.168V178.465Z" fill="#F0FAFF"/>
<path d="M482.296 178.465H468.208V195.306H482.296V178.465Z" fill="#F0FAFF"/>
<path d="M406.646 205.297H392.558V222.138H406.646V205.297Z" fill="#F0FAFF"/>
<path d="M431.932 205.297H417.844V222.138H431.932V205.297Z" fill="#F0FAFF"/>
<path d="M457.168 205.297H443.08V222.138H457.168V205.297Z" fill="#F0FAFF"/>
<path d="M482.296 205.297H468.208V222.138H482.296V205.297Z" fill="#F0FAFF"/>
<path d="M406.646 232.133H392.558V248.974H406.646V232.133Z" fill="#F0FAFF"/>
<path d="M431.932 232.133H417.844V248.974H431.932V232.133Z" fill="#F0FAFF"/>
<path d="M457.168 232.133H443.08V248.974H457.168V232.133Z" fill="#F0FAFF"/>
<path d="M482.296 232.133H468.208V248.974H482.296V232.133Z" fill="#F0FAFF"/>
<path d="M406.646 258.969H392.558V275.81H406.646V258.969Z" fill="#F0FAFF"/>
<path d="M431.932 258.969H417.844V275.81H431.932V258.969Z" fill="#F0FAFF"/>
<path d="M457.168 258.969H443.08V275.81H457.168V258.969Z" fill="#F0FAFF"/>
<path d="M482.296 258.969H468.208V275.81H482.296V258.969Z" fill="#F0FAFF"/>
<path d="M406.646 285.803H392.558V302.644H406.646V285.803Z" fill="#F0FAFF"/>
<path d="M431.932 285.803H417.844V302.644H431.932V285.803Z" fill="#F0FAFF"/>
<path d="M457.168 285.803H443.08V302.644H457.168V285.803Z" fill="#F0FAFF"/>
<path d="M482.296 285.803H468.208V302.644H482.296V285.803Z" fill="#F0FAFF"/>
<path d="M406.646 312.637H392.558V329.478H406.646V312.637Z" fill="#F0FAFF"/>
<path d="M431.932 312.637H417.844V329.478H431.932V312.637Z" fill="#F0FAFF"/>
<path d="M457.168 312.637H443.08V329.478H457.168V312.637Z" fill="#F0FAFF"/>
<path d="M482.296 312.637H468.208V329.478H482.296V312.637Z" fill="#F0FAFF"/>
<path d="M406.646 232.054H392.558V248.896H406.646V232.054Z" fill="#F0FAFF"/>
<path d="M431.932 232.054H417.844V248.896H431.932V232.054Z" fill="#F0FAFF"/>
<path d="M457.168 232.054H443.08V248.896H457.168V232.054Z" fill="#F0FAFF"/>
<path d="M482.296 232.054H468.208V248.896H482.296V232.054Z" fill="#F0FAFF"/>
<path d="M406.646 258.887H392.558V275.728H406.646V258.887Z" fill="#F0FAFF"/>
<path d="M431.932 258.887H417.844V275.728H431.932V258.887Z" fill="#F0FAFF"/>
<path d="M457.168 258.887H443.08V275.728H457.168V258.887Z" fill="#F0FAFF"/>
<path d="M482.296 258.887H468.208V275.728H482.296V258.887Z" fill="#F0FAFF"/>
<path d="M406.646 285.721H392.558V302.562H406.646V285.721Z" fill="#F0FAFF"/>
<path d="M431.932 285.72H417.844V302.562H431.932V285.72Z" fill="#F0FAFF"/>
<path d="M457.168 285.72H443.08V302.562H457.168V285.72Z" fill="#F0FAFF"/>
<path d="M482.296 285.72H468.208V302.562H482.296V285.72Z" fill="#F0FAFF"/>
<path d="M406.646 312.556H392.558V329.397H406.646V312.556Z" fill="#F0FAFF"/>
<path d="M431.932 312.556H417.844V329.397H431.932V312.556Z" fill="#F0FAFF"/>
<path d="M457.168 312.556H443.08V329.397H457.168V312.556Z" fill="#F0FAFF"/>
<path d="M482.296 312.556H468.208V329.397H482.296V312.556Z" fill="#F0FAFF"/>
<path d="M406.646 339.392H392.558V356.233H406.646V339.392Z" fill="#F0FAFF"/>
<path d="M431.932 339.392H417.844V356.233H431.932V339.392Z" fill="#F0FAFF"/>
<path d="M457.168 339.392H443.08V356.233H457.168V339.392Z" fill="#F0FAFF"/>
<path d="M482.296 339.392H468.208V356.233H482.296V339.392Z" fill="#F0FAFF"/>
<path d="M406.646 366.227H392.558V383.068H406.646V366.227Z" fill="#F0FAFF"/>
<path d="M431.932 366.227H417.844V383.068H431.932V366.227Z" fill="#F0FAFF"/>
<path d="M457.168 366.227H443.08V383.068H457.168V366.227Z" fill="#F0FAFF"/>
<path d="M482.296 366.227H468.208V383.068H482.296V366.227Z" fill="#F0FAFF"/>
<path d="M408.928 73.9768H308.241V479.854H408.928V73.9768Z" fill="#066B9B"/>
<path d="M335.949 89.0734H321.939V102.257H335.949V89.0734Z" fill="#F0FAFF"/>
<path d="M356.711 89.0734H342.702V102.257H356.711V89.0734Z" fill="#F0FAFF"/>
<path d="M335.949 113.791H321.939V126.974H335.949V113.791Z" fill="#F0FAFF"/>
<path d="M356.712 113.791H342.703V126.974H356.712V113.791Z" fill="#F0FAFF"/>
<path d="M335.949 138.509H321.939V151.692H335.949V138.509Z" fill="#F0FAFF"/>
<path d="M356.712 138.509H342.703V151.692H356.712V138.509Z" fill="#F0FAFF"/>
<path d="M335.949 163.229H321.939V176.412H335.949V163.229Z" fill="#F0FAFF"/>
<path d="M356.712 163.229H342.703V176.412H356.712V163.229Z" fill="#F0FAFF"/>
<path d="M335.949 187.947H321.939V201.131H335.949V187.947Z" fill="#F0FAFF"/>
<path d="M356.712 187.947H342.703V201.13H356.712V187.947Z" fill="#F0FAFF"/>
<path d="M335.949 212.667H321.939V225.851H335.949V212.667Z" fill="#F0FAFF"/>
<path d="M356.712 212.667H342.703V225.851H356.712V212.667Z" fill="#F0FAFF"/>
<path d="M335.949 237.386H321.939V250.569H335.949V237.386Z" fill="#F0FAFF"/>
<path d="M356.712 237.386H342.703V250.569H356.712V237.386Z" fill="#F0FAFF"/>
<path d="M335.949 262.104H321.939V275.287H335.949V262.104Z" fill="#F0FAFF"/>
<path d="M356.712 262.104H342.703V275.287H356.712V262.104Z" fill="#F0FAFF"/>
<path d="M335.949 286.821H321.939V300.004H335.949V286.821Z" fill="#F0FAFF"/>
<path d="M356.712 286.821H342.703V300.004H356.712V286.821Z" fill="#F0FAFF"/>
<path d="M335.949 311.542H321.939V324.725H335.949V311.542Z" fill="#F0FAFF"/>
<path d="M356.712 311.542H342.703V324.725H356.712V311.542Z" fill="#F0FAFF"/>
<path d="M335.949 336.261H321.939V349.444H335.949V336.261Z" fill="#F0FAFF"/>
<path d="M356.712 336.261H342.703V349.444H356.712V336.261Z" fill="#F0FAFF"/>
<path d="M335.949 360.98H321.939V374.163H335.949V360.98Z" fill="#F0FAFF"/>
<path d="M356.712 360.98H342.703V374.163H356.712V360.98Z" fill="#F0FAFF"/>
<path d="M335.949 385.697H321.939V398.881H335.949V385.697Z" fill="#F0FAFF"/>
<path d="M356.712 385.697H342.703V398.88H356.712V385.697Z" fill="#F0FAFF"/>
<path d="M335.949 410.417H321.939V423.6H335.949V410.417Z" fill="#F0FAFF"/>
<path d="M356.712 410.417H342.703V423.6H356.712V410.417Z" fill="#F0FAFF"/>
<path d="M335.949 435.136H321.939V448.319H335.949V435.136Z" fill="#F0FAFF"/>
<path d="M356.712 435.135H342.703V448.319H356.712V435.135Z" fill="#F0FAFF"/>
<path d="M377.467 89.0734H363.458V102.257H377.467V89.0734Z" fill="#F0FAFF"/>
<path d="M398.23 89.0733H384.221V102.257H398.23V89.0733Z" fill="#F0FAFF"/>
<path d="M377.467 113.791H363.458V126.974H377.467V113.791Z" fill="#F0FAFF"/>
<path d="M398.231 113.791H384.222V126.974H398.231V113.791Z" fill="#F0FAFF"/>
<path d="M377.467 138.509H363.458V151.692H377.467V138.509Z" fill="#F0FAFF"/>
<path d="M398.231 138.509H384.222V151.692H398.231V138.509Z" fill="#F0FAFF"/>
<path d="M377.467 163.229H363.458V176.412H377.467V163.229Z" fill="#F0FAFF"/>
<path d="M398.231 163.229H384.222V176.412H398.231V163.229Z" fill="#F0FAFF"/>
<path d="M377.467 187.947H363.458V201.131H377.467V187.947Z" fill="#F0FAFF"/>
<path d="M398.231 187.947H384.222V201.13H398.231V187.947Z" fill="#F0FAFF"/>
<path d="M377.467 212.667H363.458V225.85H377.467V212.667Z" fill="#F0FAFF"/>
<path d="M398.231 212.667H384.222V225.85H398.231V212.667Z" fill="#F0FAFF"/>
<path d="M377.467 237.386H363.458V250.569H377.467V237.386Z" fill="#F0FAFF"/>
<path d="M398.231 237.386H384.222V250.569H398.231V237.386Z" fill="#F0FAFF"/>
<path d="M377.467 262.104H363.458V275.287H377.467V262.104Z" fill="#F0FAFF"/>
<path d="M398.231 262.104H384.222V275.287H398.231V262.104Z" fill="#F0FAFF"/>
<path d="M377.467 286.821H363.458V300.004H377.467V286.821Z" fill="#F0FAFF"/>
<path d="M398.231 286.821H384.222V300.004H398.231V286.821Z" fill="#F0FAFF"/>
<path d="M377.467 311.542H363.458V324.725H377.467V311.542Z" fill="#F0FAFF"/>
<path d="M398.231 311.542H384.222V324.725H398.231V311.542Z" fill="#F0FAFF"/>
<path d="M377.467 336.261H363.458V349.444H377.467V336.261Z" fill="#F0FAFF"/>
<path d="M398.231 336.261H384.222V349.444H398.231V336.261Z" fill="#F0FAFF"/>
<path d="M377.467 360.979H363.458V374.163H377.467V360.979Z" fill="#F0FAFF"/>
<path d="M398.231 360.979H384.222V374.163H398.231V360.979Z" fill="#F0FAFF"/>
<path d="M377.467 385.697H363.458V398.88H377.467V385.697Z" fill="#F0FAFF"/>
<path d="M398.231 385.697H384.222V398.88H398.231V385.697Z" fill="#F0FAFF"/>
<path d="M377.467 410.417H363.458V423.6H377.467V410.417Z" fill="#F0FAFF"/>
<path d="M398.231 410.417H384.222V423.6H398.231V410.417Z" fill="#F0FAFF"/>
<path d="M377.467 435.136H363.458V448.319H377.467V435.136Z" fill="#F0FAFF"/>
<path d="M398.231 435.135H384.222V448.319H398.231V435.135Z" fill="#F0FAFF"/>
<path d="M473.767 148.6H388.231V487.39H473.767V148.6Z" fill="#4592B6" stroke="white" stroke-width="1.56256" stroke-miterlimit="1.5" stroke-linecap="round" stroke-linejoin="round"/>
<path d="M440.606 161.607H422.887V177.375H440.606V161.607Z" fill="#F0FAFF"/>
<path d="M465.092 161.607H447.372V177.374H465.092V161.607Z" fill="#F0FAFF"/>
<path d="M465.092 182.569H447.372V198.337H465.092V182.569Z" fill="#F0FAFF"/>
<path d="M465.092 203.529H447.372V219.296H465.092V203.529Z" fill="#F0FAFF"/>
<path d="M465.092 224.492H447.372V240.259H465.092V224.492Z" fill="#F0FAFF"/>
<path d="M465.092 245.453H447.372V261.221H465.092V245.453Z" fill="#F0FAFF"/>
<path d="M465.092 266.415H447.372V282.182H465.092V266.415Z" fill="#F0FAFF"/>
<path d="M465.092 287.375H447.372V303.143H465.092V287.375Z" fill="#F0FAFF"/>
<path d="M440.606 308.339H422.887V324.106H440.606V308.339Z" fill="#F0FAFF"/>
<path d="M465.092 308.339H447.372V324.106H465.092V308.339Z" fill="#F0FAFF"/>
<path d="M415.839 308.339H398.119V324.106H415.839V308.339Z" fill="#F0FAFF"/>
<path d="M415.839 161.607H398.119V177.375H415.839V161.607Z" fill="#F0FAFF"/>
<path d="M440.606 182.57H422.887V198.338H440.606V182.57Z" fill="#F0FAFF"/>
<path d="M415.839 182.57H398.119V198.338H415.839V182.57Z" fill="#F0FAFF"/>
<path d="M440.606 203.53H422.887V219.297H440.606V203.53Z" fill="#F0FAFF"/>
<path d="M415.839 203.529H398.119V219.297H415.839V203.529Z" fill="#F0FAFF"/>
<path d="M440.606 224.492H422.887V240.259H440.606V224.492Z" fill="#F0FAFF"/>
<path d="M415.839 224.492H398.119V240.259H415.839V224.492Z" fill="#F0FAFF"/>
<path d="M440.606 245.454H422.887V261.221H440.606V245.454Z" fill="#F0FAFF"/>
<path d="M415.839 245.454H398.119V261.221H415.839V245.454Z" fill="#F0FAFF"/>
<path d="M440.606 266.416H422.887V282.183H440.606V266.416Z" fill="#F0FAFF"/>
<path d="M415.839 266.416H398.119V282.183H415.839V266.416Z" fill="#F0FAFF"/>
<path d="M440.606 287.376H422.887V303.143H440.606V287.376Z" fill="#F0FAFF"/>
<path d="M415.839 287.376H398.119V303.143H415.839V287.376Z" fill="#F0FAFF"/>
<path d="M440.606 287.304H422.887V303.071H440.606V287.304Z" fill="#F0FAFF"/>
<path d="M465.092 287.304H447.372V303.072H465.092V287.304Z" fill="#F0FAFF"/>
<path d="M465.092 308.265H447.372V324.033H465.092V308.265Z" fill="#F0FAFF"/>
<path d="M465.092 329.226H447.372V344.994H465.092V329.226Z" fill="#F0FAFF"/>
<path d="M465.092 350.188H447.372V365.955H465.092V350.188Z" fill="#F0FAFF"/>
<path d="M465.092 371.149H447.372V386.916H465.092V371.149Z" fill="#F0FAFF"/>
<path d="M465.092 392.112H447.372V407.88H465.092V392.112Z" fill="#F0FAFF"/>
<path d="M465.092 413.074H447.372V428.841H465.092V413.074Z" fill="#F0FAFF"/>
<path d="M440.606 434.035H422.887V449.802H440.606V434.035Z" fill="#F0FAFF"/>
<path d="M465.092 434.035H447.372V449.802H465.092V434.035Z" fill="#F0FAFF"/>
<path d="M415.839 434.035H398.119V449.802H415.839V434.035Z" fill="#F0FAFF"/>
<path d="M415.839 287.304H398.119V303.071H415.839V287.304Z" fill="#F0FAFF"/>
<path d="M440.606 308.264H422.887V324.031H440.606V308.264Z" fill="#F0FAFF"/>
<path d="M415.839 308.264H398.119V324.032H415.839V308.264Z" fill="#F0FAFF"/>
<path d="M440.606 329.226H422.887V344.993H440.606V329.226Z" fill="#F0FAFF"/>
<path d="M415.839 329.225H398.119V344.993H415.839V329.225Z" fill="#F0FAFF"/>
<path d="M440.606 350.186H422.887V365.954H440.606V350.186Z" fill="#F0FAFF"/>
<path d="M415.839 350.186H398.119V365.954H415.839V350.186Z" fill="#F0FAFF"/>
<path d="M440.606 371.147H422.887V386.915H440.606V371.147Z" fill="#F0FAFF"/>
<path d="M415.839 371.147H398.119V386.915H415.839V371.147Z" fill="#F0FAFF"/>
<path d="M440.606 392.109H422.887V407.877H440.606V392.109Z" fill="#F0FAFF"/>
<path d="M415.839 392.109H398.119V407.877H415.839V392.109Z" fill="#F0FAFF"/>
<path d="M440.606 413.073H422.887V428.841H440.606V413.073Z" fill="#F0FAFF"/>
<path d="M415.839 413.073H398.119V428.841H415.839V413.073Z" fill="#F0FAFF"/>
<mask id="mask0_2301_15850" style="mask-type:luminance" maskUnits="userSpaceOnUse" x="473" y="366" width="78" height="106">
<path d="M550.543 366.667H473.994V471.415H550.543V366.667Z" fill="white"/>
</mask>
<g mask="url(#mask0_2301_15850)">
<path fill-rule="evenodd" clip-rule="evenodd" d="M550.546 387.646V479.165C550.546 490.748 541.15 500.144 529.574 500.144H476.324C464.747 500.144 455.352 490.748 455.352 479.165V387.646C455.352 376.074 464.747 366.667 476.324 366.667H529.574C541.15 366.667 550.546 376.074 550.546 387.646ZM535.724 389.59C535.724 384.275 531.818 379.951 527.017 379.951H481.039C476.238 379.951 469.172 378.939 469.172 384.255L472.332 477.221C472.332 482.537 476.238 486.86 481.039 486.86H527.017C531.818 486.86 535.724 482.537 535.724 477.221V389.59Z" fill="#4592B6"/>
</g>
<path fill-rule="evenodd" clip-rule="evenodd" d="M491.213 386.255C490.609 386.251 490.033 386 489.622 385.554C489.212 385.112 489.004 384.517 489.049 383.914C489.468 378.322 490.524 364.228 490.912 359.057C490.994 357.96 491.906 357.111 493.005 357.111C494.326 357.111 495.834 357.111 495.834 357.111C495.834 357.111 495.819 356.495 495.805 355.921C495.799 355.67 495.894 355.428 496.07 355.245C496.245 355.067 496.486 354.965 496.737 354.965C499.16 354.965 505.523 354.965 507.898 354.965C508.4 354.965 508.808 355.373 508.808 355.874C508.808 356.473 508.808 357.145 508.808 357.145H511.669C512.953 357.145 514.016 358.139 514.101 359.422C514.361 363.37 515.43 379.609 515.713 383.905C515.754 384.53 515.534 385.142 515.107 385.596C514.679 386.055 514.082 386.31 513.458 386.31C508.307 386.297 496.296 386.268 491.213 386.255Z" fill="#94CFF8" stroke="#94CFF8" stroke-width="0.4348" stroke-miterlimit="1.5" stroke-linecap="round" stroke-linejoin="round"/>
<path d="M504.821 344.834H500.099V354.974H504.821V344.834Z" fill="#94CFF8" stroke="#94CFF8" stroke-width="0.463753" stroke-miterlimit="1.5" stroke-linecap="round" stroke-linejoin="round"/>
<path fill-rule="evenodd" clip-rule="evenodd" d="M524.786 332.536V334.802C524.786 335.425 524.28 335.928 523.656 335.928H480.992C480.369 335.928 479.863 335.425 479.863 334.802V332.536C479.863 331.914 480.369 331.41 480.992 331.41H523.656C524.28 331.41 524.786 331.914 524.786 332.536Z" fill="#94CFF8" stroke="#94CFF8" stroke-width="0.463753" stroke-miterlimit="1.5" stroke-linecap="round" stroke-linejoin="round"/>
<path fill-rule="evenodd" clip-rule="evenodd" d="M511.836 344.834H492.881L486.607 335.93H491.465L495.04 340.779H510.081L513.049 335.93H517.262L511.836 344.834Z" fill="#94CFF8" stroke="#94CFF8" stroke-width="0.463753" stroke-miterlimit="1.5" stroke-linecap="round" stroke-linejoin="round"/>
<path fill-rule="evenodd" clip-rule="evenodd" d="M530.692 407.306L532.713 398.408H535.713L535.664 395.017H550.571V398.462H553.909L555.687 407.414L530.692 407.306Z" fill="#3B6D88" stroke="#3B6D88" stroke-width="0.466043" stroke-miterlimit="1.5" stroke-linecap="round" stroke-linejoin="round"/>
<path fill-rule="evenodd" clip-rule="evenodd" d="M555.971 448.802L553.95 457.7H550.487L550.535 461.092H535.629V457.647H532.754L530.976 448.695L555.971 448.802Z" fill="#3B6D88" stroke="#3B6D88" stroke-width="0.466043" stroke-miterlimit="1.5" stroke-linecap="round" stroke-linejoin="round"/>
<path d="M543.297 452.373C556.777 452.373 567.706 441.318 567.706 427.682C567.706 414.046 556.777 402.991 543.297 402.991C529.816 402.991 518.888 414.046 518.888 427.682C518.888 441.318 529.816 452.373 543.297 452.373Z" fill="#94CFF8"/>
<path d="M543.508 449.271C555.084 449.271 564.469 439.722 564.469 427.943C564.469 416.164 555.084 406.616 543.508 406.616C531.931 406.616 522.547 416.164 522.547 427.943C522.547 439.722 531.931 449.271 543.508 449.271Z" fill="#DEEEFD" stroke="#366D8E" stroke-width="0.46461" stroke-miterlimit="1.5" stroke-linecap="round" stroke-linejoin="round"/>
<path fill-rule="evenodd" clip-rule="evenodd" d="M543.509 417.272C543.509 417.272 549.816 427.788 549.816 432.295C549.816 435.78 546.99 438.607 543.509 438.607C540.028 438.607 537.202 435.78 537.202 432.295C537.202 427.788 543.509 417.272 543.509 417.272Z" fill="#4592B6"/>
<path fill-rule="evenodd" clip-rule="evenodd" d="M121.888 133.681L135.307 474.482H97.0635L116.185 133.681H121.888Z" fill="#0C567B" stroke="#0C567B" stroke-width="3.86235" stroke-miterlimit="1.5" stroke-linecap="round" stroke-linejoin="round"/>
<path fill-rule="evenodd" clip-rule="evenodd" d="M118.634 112.124L98.8711 5.51373C98.8711 5.51373 95.9636 66.7754 95.2884 81.011C95.1988 82.9183 95.6974 84.8073 96.7146 86.4213C101.216 93.5439 113.853 113.552 113.853 113.552L118.634 112.124Z" fill="#006CA3" stroke="#006CA3" stroke-width="3.86235" stroke-miterlimit="1.5" stroke-linecap="round" stroke-linejoin="round"/>
<path fill-rule="evenodd" clip-rule="evenodd" d="M111.24 127.039L33.4365 202.557C33.4365 202.557 86.0474 171.037 98.2726 163.712C99.9101 162.73 101.206 161.268 101.987 159.527C105.422 151.833 115.077 130.228 115.077 130.228L111.24 127.039Z" fill="#006CA3" stroke="#006CA3" stroke-width="3.86235" stroke-miterlimit="1.5" stroke-linecap="round" stroke-linejoin="round"/>
<path fill-rule="evenodd" clip-rule="evenodd" d="M125.471 124.803L230.685 151.005C230.685 151.005 176.138 122.968 163.462 116.453C161.764 115.581 159.838 115.252 157.948 115.508C149.6 116.653 126.154 119.86 126.154 119.86L125.471 124.803Z" fill="#006CA3" stroke="#006CA3" stroke-width="3.86235" stroke-miterlimit="1.5" stroke-linecap="round" stroke-linejoin="round"/>
<path d="M119.004 134.429C125.267 134.429 130.344 129.352 130.344 123.089C130.344 116.826 125.267 111.749 119.004 111.749C112.741 111.749 107.664 116.826 107.664 123.089C107.664 129.352 112.741 134.429 119.004 134.429Z" fill="#078CCF" stroke="#078CCF" stroke-width="3.86235" stroke-miterlimit="1.5" stroke-linecap="round" stroke-linejoin="round"/>
<g clip-path="url(#clip0_2301_15850)">
<rect x="167" y="124" width="183" height="126" rx="18" fill="#03364E"/>
<path d="M166.5 156.5H350.5" stroke="#D5ECF8" stroke-width="2"/>
<path d="M185.261 136.969V139.469H187.068C187.565 139.469 187.967 139.376 188.275 139.192C188.588 139.002 188.744 138.669 188.744 138.192C188.744 137.664 188.539 137.315 188.129 137.146C187.775 137.028 187.324 136.969 186.775 136.969H185.261ZM185.261 141.345V144.368H187.068C187.565 144.368 187.952 144.302 188.229 144.168C188.732 143.922 188.983 143.45 188.983 142.753C188.983 142.163 188.739 141.758 188.252 141.538C187.98 141.415 187.598 141.351 187.106 141.345H185.261ZM187.529 135C188.919 135.02 189.903 135.423 190.483 136.207C190.831 136.689 191.006 137.266 191.006 137.938C191.006 138.63 190.831 139.187 190.483 139.607C190.288 139.843 190.001 140.058 189.621 140.253C190.201 140.463 190.637 140.797 190.929 141.253C191.226 141.71 191.375 142.263 191.375 142.915C191.375 143.586 191.206 144.189 190.867 144.722C190.652 145.076 190.383 145.373 190.06 145.614C189.696 145.891 189.265 146.081 188.767 146.184C188.275 146.286 187.739 146.337 187.16 146.337H183V135H187.529Z" fill="#D5ECF8"/>
<path d="M193.063 138.442H195.286V146.337H193.063V138.442Z" fill="#D5ECF8"/>
<path d="M199.498 146.337H197.306V135H199.498V146.337Z" fill="#D5ECF8"/>
<path d="M203.724 146.337H201.532V135H203.724V146.337Z" fill="#D5ECF8"/>
<path d="M210.336 142.261C210.197 142.348 210.056 142.42 209.913 142.476C209.774 142.527 209.582 142.576 209.336 142.622L208.843 142.715C208.382 142.797 208.051 142.897 207.851 143.015C207.513 143.215 207.344 143.525 207.344 143.945C207.344 144.32 207.446 144.591 207.651 144.761C207.861 144.925 208.115 145.007 208.413 145.007C208.884 145.007 209.318 144.868 209.713 144.591C210.113 144.314 210.32 143.809 210.336 143.076V142.261ZM209.005 141.238C209.41 141.186 209.7 141.122 209.874 141.045C210.187 140.912 210.343 140.704 210.343 140.422C210.343 140.079 210.223 139.843 209.982 139.715C209.746 139.581 209.397 139.515 208.936 139.515C208.418 139.515 208.051 139.643 207.836 139.899C207.682 140.089 207.579 140.346 207.528 140.669H205.413C205.459 139.935 205.664 139.333 206.028 138.861C206.608 138.123 207.603 137.753 209.013 137.753C209.931 137.753 210.746 137.935 211.459 138.3C212.171 138.664 212.528 139.351 212.528 140.361V144.207C212.528 144.473 212.533 144.796 212.543 145.176C212.559 145.463 212.602 145.658 212.674 145.76C212.746 145.863 212.853 145.948 212.997 146.014V146.337H210.613C210.546 146.168 210.5 146.009 210.474 145.86C210.448 145.712 210.428 145.543 210.413 145.353C210.11 145.681 209.761 145.96 209.367 146.191C208.895 146.463 208.361 146.599 207.767 146.599C207.008 146.599 206.38 146.384 205.882 145.953C205.39 145.517 205.144 144.902 205.144 144.107C205.144 143.076 205.541 142.33 206.336 141.868C206.772 141.617 207.413 141.438 208.259 141.33L209.005 141.238Z" fill="#D5ECF8"/>
<path d="M218.878 137.753C218.919 137.753 218.952 137.756 218.978 137.761C219.008 137.761 219.072 137.764 219.17 137.769V140.015C219.031 139.999 218.908 139.989 218.801 139.984C218.693 139.979 218.606 139.976 218.539 139.976C217.657 139.976 217.065 140.263 216.762 140.838C216.593 141.161 216.508 141.658 216.508 142.33V146.337H214.301V137.953H216.393V139.415C216.732 138.856 217.026 138.474 217.278 138.269C217.688 137.925 218.221 137.753 218.878 137.753Z" fill="#D5ECF8"/>
<path d="M220.335 138.442H222.558V146.337H220.335V138.442Z" fill="#D5ECF8"/>
<path d="M224.054 139.738V137.953H230.854V139.776L226.6 144.538H231V146.337H223.762V144.63L228.062 139.738H224.054Z" fill="#D5ECF8"/>
<path d="M195.041 137.247C195.296 137.017 195.424 136.706 195.424 136.313C195.424 135.921 195.296 135.615 195.041 135.394C194.795 135.165 194.501 135.05 194.161 135.05C193.82 135.05 193.522 135.165 193.266 135.394C193.02 135.615 192.897 135.921 192.897 136.313C192.897 136.706 193.02 137.017 193.266 137.247C193.522 137.467 193.82 137.577 194.161 137.577C194.501 137.577 194.795 137.467 195.041 137.247Z" fill="#D5ECF8"/>
<path d="M222.35 137.247C222.605 137.017 222.733 136.706 222.733 136.313C222.733 135.921 222.605 135.615 222.35 135.394C222.104 135.165 221.81 135.05 221.47 135.05C221.129 135.05 220.831 135.165 220.575 135.394C220.329 135.615 220.206 135.921 220.206 136.313C220.206 136.706 220.329 137.017 220.575 137.247C220.831 137.467 221.129 137.577 221.47 137.577C221.81 137.577 222.104 137.467 222.35 137.247Z" fill="#D5ECF8"/>
<path d="M189 185.666H193C196.333 185.666 197.666 184.333 197.666 181V177C197.666 173.666 196.333 172.333 193 172.333H189C185.666 172.333 184.333 173.666 184.333 177V181C184.333 184.333 185.666 185.666 189 185.666Z" stroke="#D5ECF8" stroke-width="1.2" stroke-linecap="round" stroke-linejoin="round"/>
<path d="M188.167 179L190.054 180.886L193.834 177.113" stroke="#D5ECF8" stroke-width="1.2" stroke-linecap="round" stroke-linejoin="round"/>
<path d="M189 205.666H193C196.333 205.666 197.666 204.333 197.666 201V197C197.666 193.666 196.333 192.333 193 192.333H189C185.666 192.333 184.333 193.666 184.333 197V201C184.333 204.333 185.666 205.666 189 205.666Z" stroke="#D5ECF8" stroke-width="1.2" stroke-linecap="round" stroke-linejoin="round"/>
<path d="M188.167 199L190.054 200.886L193.834 197.113" stroke="#D5ECF8" stroke-width="1.2" stroke-linecap="round" stroke-linejoin="round"/>
<path d="M189 225.666H193C196.333 225.666 197.666 224.333 197.666 221V217C197.666 213.666 196.333 212.333 193 212.333H189C185.666 212.333 184.333 213.666 184.333 217V221C184.333 224.333 185.666 225.666 189 225.666Z" stroke="#D5ECF8" stroke-width="1.2" stroke-linecap="round" stroke-linejoin="round"/>
<path d="M188.167 219L190.054 220.886L193.834 217.113" stroke="#D5ECF8" stroke-width="1.2" stroke-linecap="round" stroke-linejoin="round"/>
<path d="M207 179H295.5" stroke="#D5ECF8" stroke-width="4"/>
<path d="M207 219H269" stroke="#D5ECF8" stroke-width="4"/>
<path d="M207 199H277" stroke="#D5ECF8" stroke-width="4"/>
</g>
<rect x="166" y="123" width="185" height="128" rx="19" stroke="#D5ECF8" stroke-width="2"/>
<path fill-rule="evenodd" clip-rule="evenodd" d="M694.805 472.227H64.4797C63.1536 472.227 61.8818 472.754 60.9441 473.692L2.38383 532.253C1.75387 532.883 2.20004 533.96 3.09095 533.96H733.443L694.805 472.227Z" fill="#0E384B" stroke="#0E384B" stroke-width="3.35232" stroke-miterlimit="1.5" stroke-linecap="round" stroke-linejoin="round"/>
<defs>
<clipPath id="clip0_2301_15850">
<rect x="167" y="124" width="183" height="126" rx="18" fill="white"/>
</clipPath>
</defs>
</svg>
