<svg width="589" height="604" viewBox="0 0 589 604" fill="none" xmlns="http://www.w3.org/2000/svg">
<path d="M78.4609 218.446C98.282 259.963 208.364 222.956 260.939 103.554" stroke="#03364E" stroke-width="2.33547" stroke-miterlimit="1.5" stroke-linecap="round" stroke-linejoin="round"/>
<path d="M12.8535 199.926C41.929 217.261 142.757 204.436 195.331 85.0347" stroke="#03364E" stroke-width="2.33547" stroke-miterlimit="1.5" stroke-linecap="round" stroke-linejoin="round"/>
<path d="M3.16113 229.755C32.2366 247.089 133.064 234.264 185.639 114.863" stroke="#03364E" stroke-width="2.33547" stroke-miterlimit="1.5" stroke-linecap="round" stroke-linejoin="round"/>
<path d="M77.7764 306.666L229.166 371.125L375.392 308.866M375.392 308.866L553.458 384.683M375.392 308.866L349.887 319.725L164.24 240.683" stroke="#0575AD" stroke-width="18.6869" stroke-miterlimit="100" stroke-linecap="round" stroke-linejoin="round"/>
<path d="M249.261 362.572L563 500.031L356.5 594.531" stroke="#0575AD" stroke-width="18.6869" stroke-miterlimit="100" stroke-linecap="round"/>
<path d="M333.645 398.5C260.866 429.491 188.081 460.479 115.301 491.467" stroke="#0575AD" stroke-width="18.6869" stroke-miterlimit="100" stroke-linecap="round"/>
<path d="M427.035 330.855L536.57 284.214L398.354 225.364" stroke="#0575AD" stroke-width="18.6869" stroke-miterlimit="100" stroke-linecap="square"/>
<path fill-rule="evenodd" clip-rule="evenodd" d="M229.41 66.2649L219.293 80.6253V126.988L229.41 131.296V66.2649Z" stroke="#078CCF" stroke-width="2.3018" stroke-miterlimit="1.5" stroke-linecap="round" stroke-linejoin="round"/>
<path d="M238.795 79.0102L229.409 66.2649V96.6748M238.795 79.0102V127.437M238.795 79.0102L229.409 80.8932L238.795 94.7979M238.795 79.0102L229.409 96.6748M238.795 127.437L229.409 131.296M238.795 127.437L229.409 112.279M238.795 127.437V94.7979M229.409 131.296V112.279M229.409 131.296L238.795 109.489M229.409 112.279L238.795 109.489M229.409 112.279L238.795 94.7979M238.795 109.489L229.409 96.6748M238.795 94.7979L229.409 96.6748" stroke="#078CCF" stroke-width="2.3018" stroke-miterlimit="1.5" stroke-linecap="round" stroke-linejoin="round"/>
<path d="M234.103 79.9509L229.409 66.2649M229.409 66.2649L219.293 80.6253M229.409 66.2649L224.351 80.8055L219.293 80.6253M219.293 80.6253L229.409 80.9856L219.293 95.7587M219.293 80.6253L229.044 96.721M219.293 80.6253V111.149M219.293 80.6253V126.988M219.293 80.6253L195.463 84.3267M219.293 95.7587L229.044 96.721M219.293 95.7587L229.409 112.543M219.293 95.7587V90.0927L195.463 84.3267M229.044 96.721L219.293 111.149M229.044 96.721L238.795 94.8025L262.909 103.511M219.293 111.149L229.409 112.543M219.293 111.149L229.044 131.14L229.409 112.543M229.409 112.543L219.293 126.988M219.293 126.988L229.409 131.296M219.293 126.988V123.339L185.346 114.255M219.293 126.988L200.051 223.5L219.293 181.118L229.409 232.435M219.293 126.988L214.591 150.569M219.293 126.988L229.409 152.631M195.463 84.3267L219.293 94.4731M262.909 103.511L238.795 99.6679M262.909 103.511L238.795 82.0711V99.6679M238.795 99.6679V112.198L273.498 137.065M273.498 137.065L238.795 117.828V125.687L273.498 137.065ZM273.498 137.065L238.795 129.088V127.505M238.795 127.505L229.409 131.296M238.795 127.505L256.409 223.5L238.795 182.263L229.409 232.435M238.795 127.505L229.409 152.631M238.795 127.505L242.966 150.234M229.409 131.296V232.435M229.409 131.296L242.966 150.234M229.409 131.296L214.591 150.569M185.346 114.255L219.293 109.75V120.035L185.346 114.255ZM229.409 232.435V152.631M229.409 152.631L248.633 181.119L242.966 150.234M229.409 152.631L208.221 182.52L214.591 150.569M229.409 152.631L229.422 187.814M242.966 150.234L229.422 187.814M214.591 150.569L229.422 187.814" stroke="#078CCF" stroke-width="2.3018" stroke-miterlimit="1.5" stroke-linecap="round" stroke-linejoin="round"/>
<path d="M219.293 181.117L229.422 152.649" stroke="#078CCF" stroke-width="2.3018" stroke-miterlimit="1.5" stroke-linecap="round" stroke-linejoin="round"/>
<path d="M214.593 150.616L219.292 181.119L229.422 152.65L238.77 182.082L242.928 150.205" stroke="#078CCF" stroke-width="2.3018" stroke-miterlimit="1.5" stroke-linecap="round" stroke-linejoin="round"/>
<path fill-rule="evenodd" clip-rule="evenodd" d="M46.0642 182.421L35.9473 196.781V243.143L46.0642 247.451V182.421Z" stroke="#078CCF" stroke-width="2.3018" stroke-miterlimit="1.5" stroke-linecap="round" stroke-linejoin="round"/>
<path d="M55.4494 195.166L46.0635 182.421V212.831M55.4494 195.166V243.593M55.4494 195.166L46.0635 197.049L55.4494 210.954M55.4494 195.166L46.0635 212.831M55.4494 243.593L46.0635 247.451M55.4494 243.593L46.0635 228.435M55.4494 243.593V210.954M46.0635 247.451V228.435M46.0635 247.451L55.4494 225.645M46.0635 228.435L55.4494 225.645M46.0635 228.435L55.4494 210.954M55.4494 225.645L46.0635 212.831M55.4494 210.954L46.0635 212.831" stroke="#078CCF" stroke-width="2.3018" stroke-miterlimit="1.5" stroke-linecap="round" stroke-linejoin="round"/>
<path d="M50.7568 196.107L46.0638 182.421M46.0638 182.421L35.9468 196.781M46.0638 182.421L41.0052 196.961L35.9468 196.781M35.9468 196.781L46.0638 197.141L35.9468 211.914M35.9468 196.781L45.6983 212.877M35.9468 196.781V227.305M35.9468 196.781V243.143M35.9468 196.781L12.1173 200.482M35.9468 211.914L45.6983 212.877M35.9468 211.914L46.0638 228.698M35.9468 211.914V206.248L12.1173 200.482M45.6983 212.877L35.9468 227.305M45.6983 212.877L55.4497 210.958L79.5636 219.667M35.9468 227.305L46.0638 228.698M35.9468 227.305L45.6983 247.296L46.0638 228.698M46.0638 228.698L35.9468 243.143M35.9468 243.143L46.0638 247.451M35.9468 243.143V239.494L2 230.41M35.9468 243.143L16.705 339.656L35.9468 297.273L46.0638 348.59M35.9468 243.143L31.2453 266.725M35.9468 243.143L46.0638 268.786M12.1173 200.482L35.9468 210.629M79.5636 219.667L55.4497 215.824M79.5636 219.667L55.4497 198.227V215.824M55.4497 215.824V228.353L90.1519 253.22M90.1519 253.22L55.4497 233.984V241.842L90.1519 253.22ZM90.1519 253.22L55.4497 245.243V243.661M55.4497 243.661L46.0638 247.451M55.4497 243.661L73.063 339.656L55.4497 298.419L46.0638 348.59M55.4497 243.661L46.0638 268.786M55.4497 243.661L59.6199 266.389M46.0638 247.451V348.59M46.0638 247.451L59.6199 266.389M46.0638 247.451L31.2453 266.725M2 230.41L35.9468 225.905V236.19L2 230.41ZM46.0638 348.59V268.786M46.0638 268.786L65.287 297.275L59.6199 266.389M46.0638 268.786L24.8752 298.676L31.2453 266.725M46.0638 268.786L46.076 303.969M59.6199 266.389L46.076 303.969M31.2453 266.725L46.076 303.969" stroke="#078CCF" stroke-width="2.3018" stroke-miterlimit="1.5" stroke-linecap="round" stroke-linejoin="round"/>
<path d="M35.9473 297.274L46.0764 268.805" stroke="#078CCF" stroke-width="2.3018" stroke-miterlimit="1.5" stroke-linecap="round" stroke-linejoin="round"/>
<path d="M31.2471 266.773L35.9467 297.275L46.0759 268.807L55.4241 298.239L59.582 266.362" stroke="#078CCF" stroke-width="2.3018" stroke-miterlimit="1.5" stroke-linecap="round" stroke-linejoin="round"/>
<path d="M88.1826 252.383C107.407 288.526 215.232 256.594 267.807 137.193" stroke="#03364E" stroke-width="2.33547" stroke-miterlimit="1.5" stroke-linecap="round" stroke-linejoin="round"/>
<path d="M341.899 42.2071L285.638 18.2522V247.994L341.899 271.949V42.2071Z" fill="#0C567B"/>
<path d="M339.816 55.534L285.642 32.4675V41.1626L339.816 64.2291V55.534Z" fill="#94CFF8"/>
<path d="M339.816 73.534L285.642 50.4675V59.1626L339.816 82.2291V73.534Z" fill="#94CFF8"/>
<path d="M339.816 91.534L285.642 68.4675V77.1626L339.816 100.229V91.534Z" fill="#94CFF8"/>
<path d="M384.24 23.7284L339.812 42.6453V271.061L384.24 252.145V23.7284Z" fill="#03364E"/>
<path d="M328.509 -0.00129263L285.639 18.2522L341.371 41.9819L384.242 23.7284L328.509 -0.00129263Z" fill="#066B9B"/>
<path d="M425.902 101.374L369.641 77.4196V283.745L425.902 307.7V101.374Z" fill="#0C567B"/>
<path d="M468.243 82.8928L423.814 101.81V308.048L468.243 289.131V82.8928Z" fill="#03364E"/>
<path d="M412.512 59.1634L369.642 77.4169L425.374 101.147L468.245 82.8931L412.512 59.1634Z" fill="#066B9B"/>
<path d="M423.816 116.941L369.642 93.8743V102.569L423.816 125.636V116.941Z" fill="#94CFF8"/>
<path d="M467.931 97.9754L423.502 116.892V125.587L467.931 106.671V97.9754Z" fill="#078CCF"/>
<path d="M423.816 135.602L369.642 112.536V121.231L423.816 144.297V135.602Z" fill="#94CFF8"/>
<path d="M467.931 116.634L423.502 135.551V144.246L467.931 125.329V116.634Z" fill="#078CCF"/>
<path d="M423.816 155.662L369.642 132.596V141.291L423.816 164.357V155.662Z" fill="#94CFF8"/>
<path d="M467.931 136.693L423.502 155.61V164.305L467.931 145.388V136.693Z" fill="#078CCF"/>
<path d="M423.816 175.716L369.642 152.65V161.345L423.816 184.411V175.716Z" fill="#94CFF8"/>
<path d="M467.931 156.75L423.502 175.667V184.362L467.931 165.445V156.75Z" fill="#078CCF"/>
<path d="M423.816 195.776L369.642 172.709V181.404L423.816 204.471V195.776Z" fill="#94CFF8"/>
<path d="M467.931 176.807L423.502 195.724V204.419L467.931 185.503V176.807Z" fill="#078CCF"/>
<path d="M423.816 215.834L369.642 192.768V201.463L423.816 224.529V215.834Z" fill="#94CFF8"/>
<path d="M467.931 196.864L423.502 215.781V224.476L467.931 205.559V196.864Z" fill="#078CCF"/>
<path d="M423.816 235.89L369.642 212.824V221.519L423.816 244.585V235.89Z" fill="#94CFF8"/>
<path d="M467.931 216.924L423.502 235.841V244.536L467.931 225.619V216.924Z" fill="#078CCF"/>
<path d="M423.816 255.951L369.642 232.885V241.58L423.816 264.646V255.951Z" fill="#94CFF8"/>
<path d="M467.931 236.983L423.502 255.899V264.594L467.931 245.678V236.983Z" fill="#078CCF"/>
<path d="M423.816 276.006L369.642 252.94V261.635L423.816 284.701V276.006Z" fill="#94CFF8"/>
<path d="M467.931 257.036L423.502 275.953V284.648L467.931 265.731V257.036Z" fill="#078CCF"/>
<path d="M221.831 233.537L172.573 212.564V324.438L221.831 345.411V233.537Z" fill="#0C567B"/>
<path d="M180.828 224.092L175.628 221.878V230.611L180.828 232.825V224.092Z" fill="#94CFF8"/>
<path d="M187.927 227.111L182.728 224.897V233.629L187.927 235.843V227.111Z" fill="#94CFF8"/>
<path d="M194.938 230.181L189.738 227.968V236.7L194.938 238.914V230.181Z" fill="#94CFF8"/>
<path d="M202.031 233.28L196.831 231.066V239.799L202.031 242.013V233.28Z" fill="#94CFF8"/>
<path d="M209.06 236.395L203.86 234.181V242.914L209.06 245.127V236.395Z" fill="#94CFF8"/>
<path d="M215.983 239.608L210.783 237.394V246.127L215.983 248.341V239.608Z" fill="#94CFF8"/>
<path d="M180.828 235.701L175.628 233.488V242.22L180.828 244.434V235.701Z" fill="#94CFF8"/>
<path d="M187.927 238.726L182.728 236.512V245.245L187.927 247.458V238.726Z" fill="#94CFF8"/>
<path d="M194.938 241.79L189.738 239.576V248.309L194.938 250.523V241.79Z" fill="#94CFF8"/>
<path d="M202.031 244.89L196.831 242.677V251.409L202.031 253.623V244.89Z" fill="#94CFF8"/>
<path d="M209.06 248.003L203.86 245.789V254.522L209.06 256.736V248.003Z" fill="#94CFF8"/>
<path d="M215.983 251.217L210.783 249.003V257.736L215.983 259.949V251.217Z" fill="#94CFF8"/>
<path d="M180.828 247.202L175.628 244.989V253.721L180.828 255.935V247.202Z" fill="#94CFF8"/>
<path d="M187.927 250.223L182.728 248.009V256.742L187.927 258.956V250.223Z" fill="#94CFF8"/>
<path d="M194.938 253.288L189.738 251.074V259.807L194.938 262.021V253.288Z" fill="#94CFF8"/>
<path d="M202.031 256.391L196.831 254.177V262.91L202.031 265.124V256.391Z" fill="#94CFF8"/>
<path d="M209.06 259.504L203.86 257.29V266.023L209.06 268.237V259.504Z" fill="#94CFF8"/>
<path d="M215.983 262.719L210.783 260.506V269.238L215.983 271.452V262.719Z" fill="#94CFF8"/>
<path d="M180.828 257.961L175.628 255.747V264.48L180.828 266.694V257.961Z" fill="#94CFF8"/>
<path d="M187.927 260.982L182.728 258.769V267.501L187.927 269.715V260.982Z" fill="#94CFF8"/>
<path d="M194.938 264.048L189.738 261.834V270.567L194.938 272.781V264.048Z" fill="#94CFF8"/>
<path d="M202.031 267.147L196.831 264.933V273.666L202.031 275.88V267.147Z" fill="#94CFF8"/>
<path d="M209.06 270.262L203.86 268.049V276.781L209.06 278.995V270.262Z" fill="#94CFF8"/>
<path d="M215.983 273.475L210.783 271.261V279.994L215.983 282.207V273.475Z" fill="#94CFF8"/>
<path d="M180.828 268.968L175.628 266.754V275.487L180.828 277.701V268.968Z" fill="#94CFF8"/>
<path d="M187.927 271.989L182.728 269.775V278.507L187.927 280.721V271.989Z" fill="#94CFF8"/>
<path d="M194.938 275.053L189.738 272.839V281.572L194.938 283.786V275.053Z" fill="#94CFF8"/>
<path d="M202.031 278.156L196.831 275.942V284.675L202.031 286.889V278.156Z" fill="#94CFF8"/>
<path d="M209.06 281.268L203.86 279.054V287.787L209.06 290.001V281.268Z" fill="#94CFF8"/>
<path d="M215.983 284.483L210.783 282.269V291.002L215.983 293.216V284.483Z" fill="#94CFF8"/>
<path d="M180.828 280.09L175.628 277.876V286.609L180.828 288.823V280.09Z" fill="#94CFF8"/>
<path d="M187.927 283.113L182.728 280.899V289.631L187.927 291.845V283.113Z" fill="#94CFF8"/>
<path d="M194.938 286.179L189.738 283.965V292.698L194.938 294.912V286.179Z" fill="#94CFF8"/>
<path d="M202.031 289.279L196.831 287.065V295.798L202.031 298.012V289.279Z" fill="#94CFF8"/>
<path d="M209.06 292.391L203.86 290.177V298.91L209.06 301.124V292.391Z" fill="#94CFF8"/>
<path d="M215.983 295.605L210.783 293.391V302.124L215.983 304.338V295.605Z" fill="#94CFF8"/>
<path d="M180.828 291.101L175.628 288.887V297.619L180.828 299.833V291.101Z" fill="#94CFF8"/>
<path d="M187.927 294.12L182.728 291.906V300.639L187.927 302.853V294.12Z" fill="#94CFF8"/>
<path d="M194.938 297.187L189.738 294.973V303.706L194.938 305.919V297.187Z" fill="#94CFF8"/>
<path d="M202.031 300.29L196.831 298.076V306.808L202.031 309.022V300.29Z" fill="#94CFF8"/>
<path d="M209.06 303.401L203.86 301.187V309.92L209.06 312.134V303.401Z" fill="#94CFF8"/>
<path d="M215.983 306.615L210.783 304.401V313.134L215.983 315.348V306.615Z" fill="#94CFF8"/>
<path d="M180.828 301.859L175.628 299.645V308.377L180.828 310.591V301.859Z" fill="#94CFF8"/>
<path d="M187.927 304.88L182.728 302.666V311.399L187.927 313.613V304.88Z" fill="#94CFF8"/>
<path d="M194.938 307.947L189.738 305.733V314.465L194.938 316.679V307.947Z" fill="#94CFF8"/>
<path d="M202.031 311.047L196.831 308.833V317.565L202.031 319.779V311.047Z" fill="#94CFF8"/>
<path d="M209.06 314.159L203.86 311.945V320.678L209.06 322.892V314.159Z" fill="#94CFF8"/>
<path d="M215.984 317.373L210.784 315.159V323.892L215.984 326.106V317.373Z" fill="#94CFF8"/>
<path d="M180.828 312.691L175.628 310.477V319.21L180.828 321.424V312.691Z" fill="#94CFF8"/>
<path d="M187.927 315.715L182.728 313.501V322.233L187.927 324.447V315.715Z" fill="#94CFF8"/>
<path d="M194.938 318.781L189.738 316.567V325.3L194.938 327.513V318.781Z" fill="#94CFF8"/>
<path d="M202.031 321.879L196.831 319.665V328.398L202.031 330.612V321.879Z" fill="#94CFF8"/>
<path d="M209.06 324.993L203.86 322.78V331.512L209.06 333.726V324.993Z" fill="#94CFF8"/>
<path d="M215.983 328.207L210.783 325.993V334.725L215.983 336.939V328.207Z" fill="#94CFF8"/>
<path d="M260.939 216.97L221.831 233.621V345.563L260.939 328.912V216.97Z" fill="#03364E"/>
<path d="M211.579 195.956L172.573 212.564L221.933 233.58L260.939 216.972L211.579 195.956Z" fill="#066B9B"/>
<path d="M549.39 243.716L500.132 222.743V334.617L549.39 355.59V243.716Z" fill="#0C567B"/>
<path d="M508.386 234.267L503.187 232.053V240.786L508.386 242.999V234.267Z" fill="#94CFF8"/>
<path d="M515.485 237.286L510.285 235.073V243.805L515.485 246.019V237.286Z" fill="#94CFF8"/>
<path d="M522.496 240.353L517.297 238.139V246.871L522.496 249.085V240.353Z" fill="#94CFF8"/>
<path d="M529.589 243.456L524.39 241.242V249.975L529.589 252.188V243.456Z" fill="#94CFF8"/>
<path d="M536.619 246.567L531.419 244.353V253.085L536.619 255.299V246.567Z" fill="#94CFF8"/>
<path d="M543.541 249.78L538.342 247.566V256.299L543.541 258.513V249.78Z" fill="#94CFF8"/>
<path d="M508.386 245.884L503.187 243.67V252.403L508.386 254.616V245.884Z" fill="#94CFF8"/>
<path d="M515.485 248.906L510.285 246.692V255.425L515.485 257.638V248.906Z" fill="#94CFF8"/>
<path d="M522.496 251.972L517.297 249.758V258.491L522.496 260.705V251.972Z" fill="#94CFF8"/>
<path d="M529.589 255.071L524.39 252.857V261.59L529.589 263.803V255.071Z" fill="#94CFF8"/>
<path d="M536.619 258.185L531.419 255.971V264.703L536.619 266.917V258.185Z" fill="#94CFF8"/>
<path d="M543.541 261.398L538.342 259.184V267.917L543.541 270.131V261.398Z" fill="#94CFF8"/>
<path d="M508.386 257.378L503.187 255.164V263.897L508.386 266.111V257.378Z" fill="#94CFF8"/>
<path d="M515.485 260.398L510.285 258.184V266.916L515.485 269.13V260.398Z" fill="#94CFF8"/>
<path d="M522.496 263.464L517.297 261.25V269.983L522.496 272.197V263.464Z" fill="#94CFF8"/>
<path d="M529.589 266.566L524.39 264.352V273.085L529.589 275.299V266.566Z" fill="#94CFF8"/>
<path d="M536.619 269.678L531.419 267.464V276.197L536.619 278.411V269.678Z" fill="#94CFF8"/>
<path d="M543.541 272.892L538.342 270.678V279.411L543.541 281.625V272.892Z" fill="#94CFF8"/>
<path d="M508.386 268.131L503.187 265.917V274.65L508.386 276.864V268.131Z" fill="#94CFF8"/>
<path d="M515.485 271.156L510.285 268.942V277.675L515.485 279.889V271.156Z" fill="#94CFF8"/>
<path d="M522.496 274.222L517.297 272.009V280.741L522.496 282.955V274.222Z" fill="#94CFF8"/>
<path d="M529.589 277.323L524.39 275.109V283.841L529.589 286.055V277.323Z" fill="#94CFF8"/>
<path d="M536.619 280.434L531.419 278.22V286.953L536.619 289.166V280.434Z" fill="#94CFF8"/>
<path d="M543.541 283.65L538.342 281.436V290.169L543.541 292.383V283.65Z" fill="#94CFF8"/>
<path d="M508.386 279.138L503.187 276.924V285.657L508.386 287.871V279.138Z" fill="#94CFF8"/>
<path d="M515.486 282.161L510.286 279.948V288.68L515.486 290.894V282.161Z" fill="#94CFF8"/>
<path d="M522.496 285.227L517.297 283.013V291.746L522.496 293.96V285.227Z" fill="#94CFF8"/>
<path d="M529.589 288.331L524.39 286.117V294.849L529.589 297.063V288.331Z" fill="#94CFF8"/>
<path d="M536.619 291.442L531.419 289.228V297.96L536.619 300.174V291.442Z" fill="#94CFF8"/>
<path d="M543.541 294.657L538.342 292.444V301.176L543.541 303.39V294.657Z" fill="#94CFF8"/>
<path d="M508.386 290.267L503.187 288.053V296.786L508.386 298.999V290.267Z" fill="#94CFF8"/>
<path d="M515.485 293.29L510.285 291.076V299.809L515.485 302.023V293.29Z" fill="#94CFF8"/>
<path d="M522.496 296.356L517.297 294.142V302.874L522.496 305.088V296.356Z" fill="#94CFF8"/>
<path d="M529.589 299.457L524.39 297.243V305.976L529.589 308.189V299.457Z" fill="#94CFF8"/>
<path d="M536.619 302.569L531.419 300.355V309.087L536.619 311.301V302.569Z" fill="#94CFF8"/>
<path d="M543.541 305.783L538.342 303.569V312.302L543.541 314.516V305.783Z" fill="#94CFF8"/>
<path d="M508.386 301.276L503.187 299.062V307.795L508.386 310.009V301.276Z" fill="#94CFF8"/>
<path d="M515.485 304.295L510.285 302.082V310.814L515.485 313.028V304.295Z" fill="#94CFF8"/>
<path d="M522.496 307.362L517.297 305.148V313.881L522.496 316.095V307.362Z" fill="#94CFF8"/>
<path d="M529.589 310.465L524.39 308.251V316.984L529.589 319.197V310.465Z" fill="#94CFF8"/>
<path d="M536.619 313.576L531.419 311.362V320.094L536.619 322.308V313.576Z" fill="#94CFF8"/>
<path d="M543.541 316.791L538.342 314.577V323.31L543.541 325.524V316.791Z" fill="#94CFF8"/>
<path d="M508.386 312.032L503.187 309.818V318.55L508.386 320.764V312.032Z" fill="#94CFF8"/>
<path d="M515.485 315.055L510.285 312.841V321.573L515.485 323.787V315.055Z" fill="#94CFF8"/>
<path d="M522.496 318.121L517.297 315.907V324.64L522.496 326.854V318.121Z" fill="#94CFF8"/>
<path d="M529.589 321.222L524.39 319.008V327.741L529.589 329.955V321.222Z" fill="#94CFF8"/>
<path d="M536.619 324.334L531.419 322.121V330.853L536.619 333.067V324.334Z" fill="#94CFF8"/>
<path d="M543.541 327.549L538.342 325.335V334.067L543.541 336.281V327.549Z" fill="#94CFF8"/>
<path d="M508.386 322.872L503.187 320.658V329.391L508.386 331.605V322.872Z" fill="#94CFF8"/>
<path d="M515.485 325.896L510.285 323.682V332.415L515.485 334.628V325.896Z" fill="#94CFF8"/>
<path d="M522.496 328.962L517.297 326.748V335.48L522.496 337.694V328.962Z" fill="#94CFF8"/>
<path d="M529.589 332.06L524.39 329.846V338.579L529.589 340.793V332.06Z" fill="#94CFF8"/>
<path d="M536.619 335.175L531.419 332.961V341.694L536.619 343.908V335.175Z" fill="#94CFF8"/>
<path d="M543.541 338.387L538.342 336.174V344.906L543.541 347.12V338.387Z" fill="#94CFF8"/>
<path d="M588.498 227.148L549.39 243.799V355.741L588.498 339.09V227.148Z" fill="#03364E"/>
<path d="M539.138 206.135L500.132 222.743L549.492 243.759L588.498 227.151L539.138 206.135Z" fill="#066B9B"/>
<path d="M149.561 292.29L47.957 249.029L47.957 407.926L149.561 451.187V292.29Z" fill="#0C567B"/>
<path d="M58.7647 265.989L53.1475 263.74V272.609L58.7647 274.858V265.989Z" fill="#94CFF8"/>
<path d="M66.4347 269.061L60.8174 266.812V275.681L66.4347 277.93V269.061Z" fill="#94CFF8"/>
<path d="M74.0089 272.174L68.3916 269.925V278.794L74.0089 281.043V272.174Z" fill="#94CFF8"/>
<path d="M81.671 275.325L76.0537 273.077V281.946L81.671 284.194V275.325Z" fill="#94CFF8"/>
<path d="M89.2657 278.484L83.6484 276.235V285.105L89.2657 287.353V278.484Z" fill="#94CFF8"/>
<path d="M96.7442 281.748L91.127 279.5V288.369L96.7442 290.617V281.748Z" fill="#94CFF8"/>
<path d="M58.7647 277.785L53.1475 275.536V284.405L58.7647 286.654V277.785Z" fill="#94CFF8"/>
<path d="M66.4347 280.859L60.8174 278.61V287.479L66.4347 289.728V280.859Z" fill="#94CFF8"/>
<path d="M74.0089 283.97L68.3916 281.722V290.591L74.0089 292.839V283.97Z" fill="#94CFF8"/>
<path d="M81.671 287.121L76.0537 284.872V293.742L81.671 295.99V287.121Z" fill="#94CFF8"/>
<path d="M89.2657 290.28L83.6484 288.032V296.901L89.2657 299.149V290.28Z" fill="#94CFF8"/>
<path d="M96.7442 293.546L91.127 291.298V300.167L96.7442 302.416V293.546Z" fill="#94CFF8"/>
<path d="M58.7647 289.46L53.1475 287.212V296.081L58.7647 298.33V289.46Z" fill="#94CFF8"/>
<path d="M66.4347 292.53L60.8174 290.282V299.151L66.4347 301.4V292.53Z" fill="#94CFF8"/>
<path d="M74.0089 295.644L68.3916 293.396V302.265L74.0089 304.514V295.644Z" fill="#94CFF8"/>
<path d="M81.671 298.794L76.0537 296.545V305.415L81.671 307.663V298.794Z" fill="#94CFF8"/>
<path d="M89.2657 301.956L83.6484 299.707V308.576L89.2657 310.825V301.956Z" fill="#94CFF8"/>
<path d="M96.7442 305.222L91.127 302.973V311.842L96.7442 314.091V305.222Z" fill="#94CFF8"/>
<path d="M58.7647 300.393L53.1475 298.145V307.014L58.7647 309.262V300.393Z" fill="#94CFF8"/>
<path d="M66.4347 303.463L60.8174 301.214V310.084L66.4347 312.332V303.463Z" fill="#94CFF8"/>
<path d="M74.0089 306.578L68.3916 304.329V313.198L74.0089 315.447V306.578Z" fill="#94CFF8"/>
<path d="M81.671 309.725L76.0537 307.476V316.345L81.671 318.594V309.725Z" fill="#94CFF8"/>
<path d="M89.2657 312.888L83.6484 310.639V319.508L89.2657 321.757V312.888Z" fill="#94CFF8"/>
<path d="M96.7442 316.152L91.127 313.904V322.773L96.7442 325.022V316.152Z" fill="#94CFF8"/>
<path d="M58.7647 311.565L53.1475 309.316V318.186L58.7647 320.434V311.565Z" fill="#94CFF8"/>
<path d="M66.4347 314.639L60.8174 312.391V321.26L66.4347 323.508V314.639Z" fill="#94CFF8"/>
<path d="M74.0089 317.751L68.3916 315.502V324.371L74.0089 326.62V317.751Z" fill="#94CFF8"/>
<path d="M81.671 320.901L76.0537 318.652V327.522L81.671 329.77V320.901Z" fill="#94CFF8"/>
<path d="M89.2657 324.061L83.6484 321.812V330.681L89.2657 332.93V324.061Z" fill="#94CFF8"/>
<path d="M96.7442 327.326L91.127 325.078V333.947L96.7442 336.195V327.326Z" fill="#94CFF8"/>
<path d="M58.7647 322.869L53.1475 320.62V329.49L58.7647 331.738V322.869Z" fill="#94CFF8"/>
<path d="M66.4347 325.942L60.8174 323.694V332.563L66.4347 334.811V325.942Z" fill="#94CFF8"/>
<path d="M74.0089 329.054L68.3916 326.806V335.675L74.0089 337.923V329.054Z" fill="#94CFF8"/>
<path d="M81.671 332.199L76.0537 329.951V338.82L81.671 341.069V332.199Z" fill="#94CFF8"/>
<path d="M89.2657 335.363L83.6484 333.115V341.984L89.2657 344.233V335.363Z" fill="#94CFF8"/>
<path d="M96.7442 338.631L91.127 336.382V345.251L96.7442 347.5V338.631Z" fill="#94CFF8"/>
<path d="M58.7647 334.048L53.1475 331.8V340.669L58.7647 342.918V334.048Z" fill="#94CFF8"/>
<path d="M66.4347 337.118L60.8174 334.87V343.739L66.4347 345.987V337.118Z" fill="#94CFF8"/>
<path d="M74.0089 340.233L68.3916 337.984V346.854L74.0089 349.102V340.233Z" fill="#94CFF8"/>
<path d="M81.671 343.383L76.0537 341.134V350.003L81.671 352.252V343.383Z" fill="#94CFF8"/>
<path d="M89.2657 346.542L83.6484 344.294V353.163L89.2657 355.412V346.542Z" fill="#94CFF8"/>
<path d="M96.7442 349.807L91.127 347.558V356.427L96.7442 358.676V349.807Z" fill="#94CFF8"/>
<path d="M58.7647 344.977L53.1475 342.729V351.598L58.7647 353.846V344.977Z" fill="#94CFF8"/>
<path d="M66.4347 348.046L60.8174 345.797V354.666L66.4347 356.915V348.046Z" fill="#94CFF8"/>
<path d="M74.0089 351.16L68.3916 348.912V357.781L74.0089 360.029V351.16Z" fill="#94CFF8"/>
<path d="M81.671 354.312L76.0537 352.063V360.933L81.671 363.181V354.312Z" fill="#94CFF8"/>
<path d="M89.2657 357.471L83.6484 355.222V364.091L89.2657 366.34V357.471Z" fill="#94CFF8"/>
<path d="M96.7442 360.738L91.127 358.49V367.359L96.7442 369.608V360.738Z" fill="#94CFF8"/>
<path d="M58.7647 355.983L53.1475 353.734V362.604L58.7647 364.852V355.983Z" fill="#94CFF8"/>
<path d="M66.4347 359.052L60.8174 356.803V365.672L66.4347 367.921V359.052Z" fill="#94CFF8"/>
<path d="M74.0089 362.168L68.3916 359.92V368.789L74.0089 371.038V362.168Z" fill="#94CFF8"/>
<path d="M81.671 365.315L76.0537 363.067V371.936L81.671 374.184V365.315Z" fill="#94CFF8"/>
<path d="M89.2657 368.478L83.6484 366.229V375.098L89.2657 377.347V368.478Z" fill="#94CFF8"/>
<path d="M96.7442 371.742L91.127 369.494V378.363L96.7442 380.611V371.742Z" fill="#94CFF8"/>
<path d="M58.7647 366.924L53.1475 364.675V373.544L58.7647 375.793V366.924Z" fill="#94CFF8"/>
<path d="M66.4347 369.992L60.8174 367.744V376.613L66.4347 378.862V369.992Z" fill="#94CFF8"/>
<path d="M74.0089 373.107L68.3916 370.858V379.728L74.0089 381.976V373.107Z" fill="#94CFF8"/>
<path d="M81.671 376.258L76.0537 374.009V382.878L81.671 385.127V376.258Z" fill="#94CFF8"/>
<path d="M89.2657 379.417L83.6484 377.169V386.038L89.2657 388.287V379.417Z" fill="#94CFF8"/>
<path d="M96.7442 382.682L91.127 380.434V389.303L96.7442 391.551V382.682Z" fill="#94CFF8"/>
<path d="M58.7647 378.719L53.1475 376.471V385.34L58.7647 387.589V378.719Z" fill="#94CFF8"/>
<path d="M66.4347 381.791L60.8174 379.543V388.412L66.4347 390.66V381.791Z" fill="#94CFF8"/>
<path d="M74.0089 384.903L68.3916 382.655V391.524L74.0089 393.772V384.903Z" fill="#94CFF8"/>
<path d="M81.671 388.054L76.0537 385.805V394.675L81.671 396.923V388.054Z" fill="#94CFF8"/>
<path d="M89.2657 391.213L83.6484 388.964V397.833L89.2657 400.082V391.213Z" fill="#94CFF8"/>
<path d="M96.7442 394.48L91.127 392.231V401.1L96.7442 403.349V394.48Z" fill="#94CFF8"/>
<path d="M58.7647 390.395L53.1475 388.147V397.016L58.7647 399.264V390.395Z" fill="#94CFF8"/>
<path d="M66.4347 393.467L60.8174 391.219V400.088L66.4347 402.336V393.467Z" fill="#94CFF8"/>
<path d="M74.0089 396.578L68.3916 394.329V403.199L74.0089 405.447V396.578Z" fill="#94CFF8"/>
<path d="M81.671 399.729L76.0537 397.48V406.349L81.671 408.598V399.729Z" fill="#94CFF8"/>
<path d="M89.2657 402.888L83.6484 400.64V409.509L89.2657 411.758V402.888Z" fill="#94CFF8"/>
<path d="M96.7442 406.155L91.127 403.906V412.775L96.7442 415.024V406.155Z" fill="#94CFF8"/>
<path d="M104.508 285.564L98.8906 283.316V292.185L104.508 294.433V285.564Z" fill="#94CFF8"/>
<path d="M112.177 288.635L106.56 286.386V295.256L112.177 297.504V288.635Z" fill="#94CFF8"/>
<path d="M119.752 291.748L114.135 289.5V298.369L119.752 300.617V291.748Z" fill="#94CFF8"/>
<path d="M127.414 294.897L121.797 292.648V301.517L127.414 303.766V294.897Z" fill="#94CFF8"/>
<path d="M135.009 298.059L129.392 295.811V304.68L135.009 306.928V298.059Z" fill="#94CFF8"/>
<path d="M142.487 301.323L136.87 299.075V307.944L142.487 310.193V301.323Z" fill="#94CFF8"/>
<path d="M104.508 297.364L98.8906 295.115V303.985L104.508 306.233V297.364Z" fill="#94CFF8"/>
<path d="M112.177 300.435L106.56 298.186V307.055L112.177 309.304V300.435Z" fill="#94CFF8"/>
<path d="M119.752 303.549L114.135 301.301V310.17L119.752 312.418V303.549Z" fill="#94CFF8"/>
<path d="M127.414 306.699L121.797 304.451V313.32L127.414 315.569V306.699Z" fill="#94CFF8"/>
<path d="M135.009 309.858L129.392 307.61V316.479L135.009 318.727V309.858Z" fill="#94CFF8"/>
<path d="M142.487 313.124L136.87 310.876V319.745L142.487 321.994V313.124Z" fill="#94CFF8"/>
<path d="M104.508 309.037L98.8906 306.788V315.658L104.508 317.906V309.037Z" fill="#94CFF8"/>
<path d="M112.177 312.109L106.56 309.86V318.729L112.177 320.978V312.109Z" fill="#94CFF8"/>
<path d="M119.752 315.221L114.135 312.973V321.842L119.752 324.091V315.221Z" fill="#94CFF8"/>
<path d="M127.414 318.372L121.797 316.124V324.993L127.414 327.241V318.372Z" fill="#94CFF8"/>
<path d="M135.009 321.531L129.392 319.283V328.152L135.009 330.401V321.531Z" fill="#94CFF8"/>
<path d="M142.487 324.797L136.87 322.549V331.418L142.487 333.666V324.797Z" fill="#94CFF8"/>
<path d="M104.508 319.966L98.8906 317.717V326.586L104.508 328.835V319.966Z" fill="#94CFF8"/>
<path d="M112.177 323.038L106.56 320.789V329.658L112.177 331.907V323.038Z" fill="#94CFF8"/>
<path d="M119.752 326.15L114.135 323.902V332.771L119.752 335.019V326.15Z" fill="#94CFF8"/>
<path d="M127.414 329.296L121.797 327.048V335.917L127.414 338.165V329.296Z" fill="#94CFF8"/>
<path d="M135.009 332.46L129.392 330.211V339.08L135.009 341.329V332.46Z" fill="#94CFF8"/>
<path d="M142.487 335.727L136.87 333.478V342.347L142.487 344.596V335.727Z" fill="#94CFF8"/>
<path d="M104.508 331.142L98.8906 328.894V337.763L104.508 340.011V331.142Z" fill="#94CFF8"/>
<path d="M112.177 334.211L106.56 331.963V340.832L112.177 343.08V334.211Z" fill="#94CFF8"/>
<path d="M119.752 337.327L114.135 335.079V343.948L119.752 346.197V337.327Z" fill="#94CFF8"/>
<path d="M127.414 340.475L121.797 338.226V347.096L127.414 349.344V340.475Z" fill="#94CFF8"/>
<path d="M135.009 343.638L129.392 341.389V350.259L135.009 352.507V343.638Z" fill="#94CFF8"/>
<path d="M142.487 346.902L136.87 344.653V353.522L142.487 355.771V346.902Z" fill="#94CFF8"/>
<path d="M104.508 342.448L98.8906 340.2V349.069L104.508 351.318V342.448Z" fill="#94CFF8"/>
<path d="M112.177 345.517L106.56 343.269V352.138L112.177 354.386V345.517Z" fill="#94CFF8"/>
<path d="M119.752 348.63L114.135 346.381V355.251L119.752 357.499V348.63Z" fill="#94CFF8"/>
<path d="M127.414 351.78L121.797 349.532V358.401L127.414 360.649V351.78Z" fill="#94CFF8"/>
<path d="M135.009 354.942L129.392 352.693V361.563L135.009 363.811V354.942Z" fill="#94CFF8"/>
<path d="M142.487 358.207L136.87 355.958V364.827L142.487 367.076V358.207Z" fill="#94CFF8"/>
<path d="M104.508 353.624L98.8906 351.375V360.244L104.508 362.493V353.624Z" fill="#94CFF8"/>
<path d="M112.177 356.693L106.56 354.444V363.313L112.177 365.562V356.693Z" fill="#94CFF8"/>
<path d="M119.752 359.806L114.135 357.557V366.427L119.752 368.675V359.806Z" fill="#94CFF8"/>
<path d="M127.414 362.954L121.797 360.706V369.575L127.414 371.824V362.954Z" fill="#94CFF8"/>
<path d="M135.009 366.118L129.392 363.869V372.739L135.009 374.987V366.118Z" fill="#94CFF8"/>
<path d="M142.487 369.381L136.87 367.133V376.002L142.487 378.25V369.381Z" fill="#94CFF8"/>
<path d="M104.508 364.554L98.8906 362.306V371.175L104.508 373.424V364.554Z" fill="#94CFF8"/>
<path d="M112.177 367.624L106.56 365.376V374.245L112.177 376.494V367.624Z" fill="#94CFF8"/>
<path d="M119.752 370.737L114.135 368.489V377.358L119.752 379.606V370.737Z" fill="#94CFF8"/>
<path d="M127.414 373.888L121.797 371.639V380.509L127.414 382.757V373.888Z" fill="#94CFF8"/>
<path d="M135.009 377.048L129.392 374.799V383.668L135.009 385.917V377.048Z" fill="#94CFF8"/>
<path d="M142.487 380.312L136.87 378.063V386.932L142.487 389.181V380.312Z" fill="#94CFF8"/>
<path d="M104.508 375.554L98.8906 373.306V382.175L104.508 384.424V375.554Z" fill="#94CFF8"/>
<path d="M112.177 378.628L106.56 376.379V385.248L112.177 387.497V378.628Z" fill="#94CFF8"/>
<path d="M119.752 381.74L114.135 379.492V388.361L119.752 390.61V381.74Z" fill="#94CFF8"/>
<path d="M127.414 384.889L121.797 382.641V391.51L127.414 393.759V384.889Z" fill="#94CFF8"/>
<path d="M135.009 388.05L129.392 385.802V394.671L135.009 396.919V388.05Z" fill="#94CFF8"/>
<path d="M142.487 391.315L136.87 389.067V397.936L142.487 400.184V391.315Z" fill="#94CFF8"/>
<path d="M104.508 386.495L98.8906 384.247V393.116L104.508 395.365V386.495Z" fill="#94CFF8"/>
<path d="M112.177 389.567L106.56 387.318V396.188L112.177 398.436V389.567Z" fill="#94CFF8"/>
<path d="M119.752 392.68L114.135 390.431V399.301L119.752 401.549V392.68Z" fill="#94CFF8"/>
<path d="M127.414 395.83L121.797 393.581V402.45L127.414 404.699V395.83Z" fill="#94CFF8"/>
<path d="M135.009 398.989L129.392 396.74V405.61L135.009 407.858V398.989Z" fill="#94CFF8"/>
<path d="M142.487 402.256L136.87 400.007V408.876L142.487 411.125V402.256Z" fill="#94CFF8"/>
<path d="M104.508 398.295L98.8906 396.047V404.916L104.508 407.164V398.295Z" fill="#94CFF8"/>
<path d="M112.177 401.367L106.56 399.118V407.988L112.177 410.236V401.367Z" fill="#94CFF8"/>
<path d="M119.752 404.481L114.135 402.232V411.101L119.752 413.35V404.481Z" fill="#94CFF8"/>
<path d="M127.414 407.628L121.797 405.379V414.248L127.414 416.497V407.628Z" fill="#94CFF8"/>
<path d="M135.009 410.792L129.392 408.543V417.412L135.009 419.661V410.792Z" fill="#94CFF8"/>
<path d="M142.487 414.056L136.87 411.808V420.677L142.487 422.926V414.056Z" fill="#94CFF8"/>
<path d="M104.508 409.971L98.8906 407.722V416.591L104.508 418.84V409.971Z" fill="#94CFF8"/>
<path d="M112.177 413.041L106.56 410.793V419.662L112.177 421.91V413.041Z" fill="#94CFF8"/>
<path d="M119.752 416.154L114.135 413.906V422.775L119.752 425.023V416.154Z" fill="#94CFF8"/>
<path d="M127.414 419.305L121.797 417.056V425.925L127.414 428.174V419.305Z" fill="#94CFF8"/>
<path d="M135.008 422.463L129.391 420.215V429.084L135.008 431.332V422.463Z" fill="#94CFF8"/>
<path d="M142.487 425.728L136.87 423.479V432.348L142.487 434.597V425.728Z" fill="#94CFF8"/>
<path d="M202.002 269.832L149.562 292.16V451.124L202.002 428.796V269.832Z" fill="#03364E"/>
<path d="M100.656 226.688L47.4814 249.328L148.825 292.478L201.999 269.838L100.656 226.688Z" fill="#066B9B"/>
<path d="M148.143 268.481L79.1396 239.101V253.849L148.143 283.23V268.481Z" fill="#0C567B"/>
<path d="M162.966 262.173L147.855 268.607V282.579L162.966 276.146V262.173Z" fill="#03364E"/>
<path d="M93.9594 232.791L79.1396 239.101L148.143 268.481L162.963 262.171L93.9594 232.791Z" fill="#0075AD"/>
<path d="M313.261 111.953L259.314 88.9835V260.654L313.261 283.624V111.953Z" fill="#0C567B"/>
<path d="M269.615 102.45L264.165 100.13V109.282L269.615 111.602V102.45Z" fill="#94CFF8"/>
<path d="M277.055 105.614L271.605 103.294V112.447L277.055 114.767V105.614Z" fill="#94CFF8"/>
<path d="M284.404 108.83L278.954 106.509V115.662L284.404 117.982V108.83Z" fill="#94CFF8"/>
<path d="M291.837 112.077L286.388 109.757V118.909L291.837 121.23V112.077Z" fill="#94CFF8"/>
<path d="M299.204 115.342L293.755 113.021V122.174L299.204 124.494V115.342Z" fill="#94CFF8"/>
<path d="M306.46 118.712L301.011 116.392V125.544L306.46 127.865V118.712Z" fill="#94CFF8"/>
<path d="M269.615 114.627L264.165 112.307V121.459L269.615 123.779V114.627Z" fill="#94CFF8"/>
<path d="M277.055 117.794L271.605 115.473V124.626L277.055 126.946V117.794Z" fill="#94CFF8"/>
<path d="M284.403 121.008L278.953 118.687V127.84L284.403 130.16V121.008Z" fill="#94CFF8"/>
<path d="M291.837 124.256L286.388 121.936V131.088L291.837 133.409V124.256Z" fill="#94CFF8"/>
<path d="M299.204 127.519L293.755 125.199V134.351L299.204 136.671V127.519Z" fill="#94CFF8"/>
<path d="M306.46 130.89L301.011 128.57V137.722L306.46 140.043V130.89Z" fill="#94CFF8"/>
<path d="M269.615 126.67L264.165 124.349V133.502L269.615 135.822V126.67Z" fill="#94CFF8"/>
<path d="M277.055 129.837L271.605 127.516V136.669L277.055 138.989V129.837Z" fill="#94CFF8"/>
<path d="M284.404 133.053L278.954 130.732V139.885L284.404 142.205V133.053Z" fill="#94CFF8"/>
<path d="M291.837 136.299L286.388 133.979V143.131L291.837 145.452V136.299Z" fill="#94CFF8"/>
<path d="M299.204 139.562L293.755 137.242V146.394L299.204 148.714V139.562Z" fill="#94CFF8"/>
<path d="M306.46 142.932L301.011 140.612V149.764L306.46 152.084V142.932Z" fill="#94CFF8"/>
<path d="M269.615 137.947L264.165 135.627V144.779L269.615 147.1V137.947Z" fill="#94CFF8"/>
<path d="M277.055 141.115L271.605 138.795V147.947L277.055 150.267V141.115Z" fill="#94CFF8"/>
<path d="M284.403 144.329L278.953 142.009V151.161L284.403 153.482V144.329Z" fill="#94CFF8"/>
<path d="M291.837 147.579L286.388 145.258V154.411L291.837 156.731V147.579Z" fill="#94CFF8"/>
<path d="M299.204 150.842L293.755 148.522V157.674L299.204 159.995V150.842Z" fill="#94CFF8"/>
<path d="M306.46 154.208L301.011 151.888V161.04L306.46 163.36V154.208Z" fill="#94CFF8"/>
<path d="M269.615 149.484L264.165 147.164V156.317L269.615 158.637V149.484Z" fill="#94CFF8"/>
<path d="M277.055 152.651L271.605 150.331V159.483L277.055 161.803V152.651Z" fill="#94CFF8"/>
<path d="M284.404 155.865L278.954 153.545V162.697L284.404 165.018V155.865Z" fill="#94CFF8"/>
<path d="M291.837 159.114L286.388 156.793V165.946L291.837 168.266V159.114Z" fill="#94CFF8"/>
<path d="M299.204 162.376L293.755 160.056V169.208L299.204 171.529V162.376Z" fill="#94CFF8"/>
<path d="M306.46 165.747L301.011 163.427V172.579L306.46 174.899V165.747Z" fill="#94CFF8"/>
<path d="M269.615 161.147L264.165 158.827V167.979L269.615 170.3V161.147Z" fill="#94CFF8"/>
<path d="M277.055 164.314L271.605 161.994V171.146L277.055 173.466V164.314Z" fill="#94CFF8"/>
<path d="M284.404 167.528L278.954 165.208V174.361L284.404 176.681V167.528Z" fill="#94CFF8"/>
<path d="M291.837 170.777L286.388 168.457V177.609L291.837 179.929V170.777Z" fill="#94CFF8"/>
<path d="M299.204 174.042L293.755 171.722V180.874L299.204 183.195V174.042Z" fill="#94CFF8"/>
<path d="M306.46 177.411L301.011 175.09V184.243L306.46 186.563V177.411Z" fill="#94CFF8"/>
<path d="M269.615 172.678L264.165 170.357V179.51L269.615 181.83V172.678Z" fill="#94CFF8"/>
<path d="M277.055 175.847L271.605 173.527V182.679L277.055 185V175.847Z" fill="#94CFF8"/>
<path d="M284.404 179.062L278.954 176.741V185.894L284.404 188.214V179.062Z" fill="#94CFF8"/>
<path d="M291.837 182.31L286.388 179.99V189.142L291.837 191.462V182.31Z" fill="#94CFF8"/>
<path d="M299.204 185.573L293.755 183.252V192.405L299.204 194.725V185.573Z" fill="#94CFF8"/>
<path d="M306.46 188.939L301.011 186.619V195.772L306.46 198.092V188.939Z" fill="#94CFF8"/>
<path d="M269.615 183.961L264.165 181.641V190.793L269.615 193.114V183.961Z" fill="#94CFF8"/>
<path d="M277.055 187.128L271.605 184.808V193.96L277.055 196.28V187.128Z" fill="#94CFF8"/>
<path d="M284.404 190.341L278.954 188.021V197.174L284.404 199.494V190.341Z" fill="#94CFF8"/>
<path d="M291.837 193.591L286.388 191.27V200.423L291.837 202.743V193.591Z" fill="#94CFF8"/>
<path d="M299.204 196.853L293.755 194.533V203.685L299.204 206.006V196.853Z" fill="#94CFF8"/>
<path d="M306.46 200.221L301.011 197.901V207.053L306.46 209.373V200.221Z" fill="#94CFF8"/>
<path d="M269.615 195.315L264.165 192.995V202.147L269.615 204.467V195.315Z" fill="#94CFF8"/>
<path d="M277.055 198.483L271.605 196.162V205.315L277.055 207.635V198.483Z" fill="#94CFF8"/>
<path d="M284.404 201.697L278.954 199.377V208.529L284.404 210.849V201.697Z" fill="#94CFF8"/>
<path d="M291.837 204.945L286.388 202.625V211.777L291.837 214.098V204.945Z" fill="#94CFF8"/>
<path d="M299.204 208.208L293.755 205.888V215.04L299.204 217.36V208.208Z" fill="#94CFF8"/>
<path d="M306.46 211.577L301.011 209.256V218.409L306.46 220.729V211.577Z" fill="#94CFF8"/>
<path d="M269.615 196.276L264.165 193.956V203.108L269.615 205.428V196.276Z" fill="#94CFF8"/>
<path d="M277.055 199.443L271.605 197.122V206.275L277.055 208.595V199.443Z" fill="#94CFF8"/>
<path d="M284.404 202.656L278.954 200.336V209.488L284.404 211.809V202.656Z" fill="#94CFF8"/>
<path d="M291.837 205.905L286.388 203.585V212.737L291.837 215.058V205.905Z" fill="#94CFF8"/>
<path d="M299.204 209.168L293.755 206.848V216L299.204 218.32V209.168Z" fill="#94CFF8"/>
<path d="M306.46 212.538L301.011 210.218V219.371L306.46 221.691V212.538Z" fill="#94CFF8"/>
<path d="M269.615 208.326L264.165 206.005V215.158L269.615 217.478V208.326Z" fill="#94CFF8"/>
<path d="M277.055 211.492L271.605 209.171V218.324L277.055 220.644V211.492Z" fill="#94CFF8"/>
<path d="M284.404 214.707L278.954 212.387V221.539L284.404 223.86V214.707Z" fill="#94CFF8"/>
<path d="M291.837 217.954L286.388 215.634V224.786L291.837 227.107V217.954Z" fill="#94CFF8"/>
<path d="M299.204 221.217L293.755 218.897V228.049L299.204 230.37V221.217Z" fill="#94CFF8"/>
<path d="M306.46 224.585L301.011 222.265V231.417L306.46 233.737V224.585Z" fill="#94CFF8"/>
<path d="M269.615 219.604L264.165 217.283V226.436L269.615 228.756V219.604Z" fill="#94CFF8"/>
<path d="M277.055 222.77L271.605 220.449V229.602L277.055 231.922V222.77Z" fill="#94CFF8"/>
<path d="M284.404 225.983L278.954 223.663V232.815L284.404 235.136V225.983Z" fill="#94CFF8"/>
<path d="M291.837 229.232L286.388 226.912V236.064L291.837 238.385V229.232Z" fill="#94CFF8"/>
<path d="M299.204 232.497L293.755 230.177V239.329L299.204 241.649V232.497Z" fill="#94CFF8"/>
<path d="M306.46 235.865L301.011 233.544V242.697L306.46 245.017V235.865Z" fill="#94CFF8"/>
<path d="M269.615 231.131L264.165 228.81V237.963L269.615 240.283V231.131Z" fill="#94CFF8"/>
<path d="M277.055 234.302L271.605 231.982V241.134L277.055 243.454V234.302Z" fill="#94CFF8"/>
<path d="M284.404 237.517L278.954 235.197V244.349L284.404 246.669V237.517Z" fill="#94CFF8"/>
<path d="M291.837 240.765L286.388 238.445V247.597L291.837 249.917V240.765Z" fill="#94CFF8"/>
<path d="M299.204 244.028L293.755 241.707V250.86L299.204 253.18V244.028Z" fill="#94CFF8"/>
<path d="M306.46 247.396L301.011 245.076V254.228L306.46 256.549V247.396Z" fill="#94CFF8"/>
<path d="M269.615 242.798L264.165 240.477V249.63L269.615 251.95V242.798Z" fill="#94CFF8"/>
<path d="M277.055 245.965L271.605 243.644V252.797L277.055 255.117V245.965Z" fill="#94CFF8"/>
<path d="M284.404 249.178L278.954 246.858V256.01L284.404 258.33V249.178Z" fill="#94CFF8"/>
<path d="M291.837 252.427L286.388 250.107V259.259L291.837 261.579V252.427Z" fill="#94CFF8"/>
<path d="M299.204 255.692L293.755 253.371V262.524L299.204 264.844V255.692Z" fill="#94CFF8"/>
<path d="M306.46 259.06L301.011 256.74V265.892L306.46 268.213V259.06Z" fill="#94CFF8"/>
<path d="M355.847 93.7612L313.246 111.9V283.499L355.847 265.36V93.7612Z" fill="#03364E"/>
<path d="M302.666 70.5262L258.739 89.2294L313.07 112.362L356.997 93.6592L302.666 70.5262Z" fill="#066B9B"/>
<path d="M393.48 238.714L336.669 214.525V377.357L393.48 401.545V238.714Z" fill="#0C567B" stroke="#0C567B" stroke-width="1.94709" stroke-miterlimit="1.5" stroke-linecap="round" stroke-linejoin="round"/>
<path d="M439.156 219.438L393.482 238.885V401.545L439.156 382.099V219.438Z" fill="#03364E" stroke="#03364E" stroke-width="2.88578" stroke-miterlimit="1.5" stroke-linecap="round" stroke-linejoin="round"/>
<path d="M382.135 195.164L336.662 214.525L393.673 238.799L439.146 219.438L382.135 195.164Z" fill="#066B9B" stroke="#066B9B" stroke-width="1.76165" stroke-miterlimit="1.5" stroke-linecap="round" stroke-linejoin="round"/>
<path d="M347.74 229.347L341.961 226.886V236.592L347.74 239.053V229.347Z" fill="#94CFF8"/>
<path d="M355.631 232.705L349.852 230.245V239.951L355.631 242.411V232.705Z" fill="#94CFF8"/>
<path d="M363.424 236.11L357.645 233.649V243.355L363.424 245.816V236.11Z" fill="#94CFF8"/>
<path d="M371.307 239.557L365.527 237.097V246.803L371.307 249.263V239.557Z" fill="#94CFF8"/>
<path d="M379.12 243.017L373.341 240.557V250.263L379.12 252.723V243.017Z" fill="#94CFF8"/>
<path d="M386.814 246.591L381.035 244.13V253.836L386.814 256.297V246.591Z" fill="#94CFF8"/>
<path d="M347.74 242.255L341.961 239.795V249.501L347.74 251.961V242.255Z" fill="#94CFF8"/>
<path d="M355.631 245.615L349.852 243.155V252.861L355.631 255.321V245.615Z" fill="#94CFF8"/>
<path d="M363.424 249.02L357.645 246.56V256.266L363.424 258.727V249.02Z" fill="#94CFF8"/>
<path d="M371.307 252.465L365.527 250.005V259.711L371.307 262.171V252.465Z" fill="#94CFF8"/>
<path d="M379.12 255.926L373.341 253.466V263.172L379.12 265.632V255.926Z" fill="#94CFF8"/>
<path d="M386.814 259.498L381.035 257.038V266.744L386.814 269.205V259.498Z" fill="#94CFF8"/>
<path d="M347.74 255.025L341.961 252.564V262.27L347.74 264.731V255.025Z" fill="#94CFF8"/>
<path d="M355.631 258.385L349.852 255.924V265.63L355.631 268.091V258.385Z" fill="#94CFF8"/>
<path d="M363.424 261.795L357.645 259.334V269.04L363.424 271.501V261.795Z" fill="#94CFF8"/>
<path d="M371.307 265.24L365.527 262.78V272.486L371.307 274.946V265.24Z" fill="#94CFF8"/>
<path d="M379.12 268.7L373.341 266.239V275.945L379.12 278.406V268.7Z" fill="#94CFF8"/>
<path d="M386.814 272.273L381.035 269.812V279.518L386.814 281.979V272.273Z" fill="#94CFF8"/>
<path d="M347.74 266.992L341.961 264.531V274.237L347.74 276.698V266.992Z" fill="#94CFF8"/>
<path d="M355.631 270.35L349.852 267.889V277.595L355.631 280.056V270.35Z" fill="#94CFF8"/>
<path d="M363.424 273.757L357.645 271.297V281.003L363.424 283.463V273.757Z" fill="#94CFF8"/>
<path d="M371.307 277.203L365.527 274.743V284.449L371.307 286.909V277.203Z" fill="#94CFF8"/>
<path d="M379.12 280.663L373.341 278.203V287.909L379.12 290.369V280.663Z" fill="#94CFF8"/>
<path d="M386.814 284.237L381.035 281.777V291.483L386.814 293.943V284.237Z" fill="#94CFF8"/>
<path d="M347.74 279.219L341.961 276.759V286.465L347.74 288.925V279.219Z" fill="#94CFF8"/>
<path d="M355.631 282.579L349.852 280.118V289.824L355.631 292.285V282.579Z" fill="#94CFF8"/>
<path d="M363.424 285.988L357.645 283.528V293.234L363.424 295.694V285.988Z" fill="#94CFF8"/>
<path d="M371.307 289.433L365.527 286.972V296.678L371.307 299.139V289.433Z" fill="#94CFF8"/>
<path d="M379.12 292.894L373.341 290.434V300.14L379.12 302.601V292.894Z" fill="#94CFF8"/>
<path d="M386.814 296.466L381.035 294.005V303.711L386.814 306.172V296.466Z" fill="#94CFF8"/>
<path d="M347.74 291.589L341.961 289.129V298.835L347.74 301.295V291.589Z" fill="#94CFF8"/>
<path d="M355.631 294.948L349.852 292.487V302.193L355.631 304.654V294.948Z" fill="#94CFF8"/>
<path d="M363.424 298.353L357.645 295.892V305.598L363.424 308.059V298.353Z" fill="#94CFF8"/>
<path d="M371.307 301.801L365.527 299.34V309.046L371.307 311.507V301.801Z" fill="#94CFF8"/>
<path d="M379.12 305.26L373.341 302.8V312.506L379.12 314.967V305.26Z" fill="#94CFF8"/>
<path d="M386.814 308.834L381.035 306.374V316.08L386.814 318.54V308.834Z" fill="#94CFF8"/>
<path d="M347.74 303.824L341.961 301.363V311.069L347.74 313.53V303.824Z" fill="#94CFF8"/>
<path d="M355.631 307.182L349.852 304.721V314.427L355.631 316.888V307.182Z" fill="#94CFF8"/>
<path d="M363.424 310.589L357.645 308.129V317.835L363.424 320.295V310.589Z" fill="#94CFF8"/>
<path d="M371.307 314.037L365.527 311.576V321.282L371.307 323.743V314.037Z" fill="#94CFF8"/>
<path d="M379.12 317.496L373.341 315.035V324.741L379.12 327.202V317.496Z" fill="#94CFF8"/>
<path d="M386.814 321.068L381.035 318.608V328.314L386.814 330.774V321.068Z" fill="#94CFF8"/>
<path d="M347.74 315.78L341.961 313.319V323.025L347.74 325.486V315.78Z" fill="#94CFF8"/>
<path d="M355.631 319.141L349.852 316.68V326.386L355.631 328.847V319.141Z" fill="#94CFF8"/>
<path d="M363.423 322.547L357.644 320.086V329.792L363.423 332.253V322.547Z" fill="#94CFF8"/>
<path d="M371.307 325.995L365.527 323.534V333.24L371.307 335.701V325.995Z" fill="#94CFF8"/>
<path d="M379.12 329.454L373.341 326.993V336.699L379.12 339.16V329.454Z" fill="#94CFF8"/>
<path d="M386.814 333.027L381.035 330.566V340.272L386.814 342.733V333.027Z" fill="#94CFF8"/>
<path d="M347.74 327.828L341.961 325.367V335.073L347.74 337.534V327.828Z" fill="#94CFF8"/>
<path d="M355.631 331.187L349.852 328.726V338.432L355.631 340.893V331.187Z" fill="#94CFF8"/>
<path d="M363.424 334.592L357.645 332.131V341.837L363.424 344.298V334.592Z" fill="#94CFF8"/>
<path d="M371.307 338.037L365.527 335.576V345.282L371.307 347.743V338.037Z" fill="#94CFF8"/>
<path d="M379.12 341.498L373.341 339.037V348.743L379.12 351.204V341.498Z" fill="#94CFF8"/>
<path d="M386.814 345.071L381.035 342.611V352.317L386.814 354.778V345.071Z" fill="#94CFF8"/>
<path d="M347.74 339.675L341.961 337.215V346.921L347.74 349.381V339.675Z" fill="#94CFF8"/>
<path d="M355.631 343.036L349.852 340.575V350.281L355.631 352.742V343.036Z" fill="#94CFF8"/>
<path d="M363.423 346.44L357.644 343.98V353.686L363.423 356.146V346.44Z" fill="#94CFF8"/>
<path d="M371.307 349.89L365.527 347.429V357.135L371.307 359.596V349.89Z" fill="#94CFF8"/>
<path d="M379.12 353.35L373.341 350.889V360.595L379.12 363.056V353.35Z" fill="#94CFF8"/>
<path d="M386.814 356.923L381.035 354.462V364.168L386.814 366.629V356.923Z" fill="#94CFF8"/>
<path d="M347.74 351.632L341.961 349.172V358.878L347.74 361.338V351.632Z" fill="#94CFF8"/>
<path d="M355.631 354.992L349.852 352.531V362.238L355.631 364.698V354.992Z" fill="#94CFF8"/>
<path d="M363.424 358.402L357.645 355.941V365.647L363.424 368.108V358.402Z" fill="#94CFF8"/>
<path d="M371.307 361.848L365.527 359.387V369.093L371.307 371.554V361.848Z" fill="#94CFF8"/>
<path d="M379.12 365.305L373.341 362.844V372.55L379.12 375.011V365.305Z" fill="#94CFF8"/>
<path d="M386.814 368.881L381.035 366.42V376.126L386.814 378.587V368.881Z" fill="#94CFF8"/>
<path d="M347.74 363.679L341.961 361.219V370.925L347.74 373.385V363.679Z" fill="#94CFF8"/>
<path d="M355.631 367.04L349.852 364.579V374.285L355.631 376.746V367.04Z" fill="#94CFF8"/>
<path d="M363.424 370.447L357.645 367.987V377.693L363.424 380.153V370.447Z" fill="#94CFF8"/>
<path d="M371.307 373.891L365.527 371.43V381.136L371.307 383.597V373.891Z" fill="#94CFF8"/>
<path d="M379.12 377.349L373.341 374.888V384.594L379.12 387.055V377.349Z" fill="#94CFF8"/>
<path d="M386.814 380.924L381.035 378.464V388.17L386.814 390.63V380.924Z" fill="#94CFF8"/>
<path d="M393.481 204.39L365.017 192.27V218.363L393.481 230.483V204.39Z" fill="#0C567B" stroke="#0C567B" stroke-width="1.94784" stroke-miterlimit="1.5" stroke-linecap="round" stroke-linejoin="round"/>
<path d="M420.179 193.947L393.481 205.315V230.481L420.179 219.113V193.947Z" fill="#03364E" stroke="#0E384B" stroke-width="2.94464" stroke-miterlimit="1.5" stroke-linecap="round" stroke-linejoin="round"/>
<path fill-rule="evenodd" clip-rule="evenodd" d="M365.016 192.274L392.679 168.988V205.318L365.016 192.274Z" fill="#0C5F88" stroke="#0C5F88" stroke-width="2.30236" stroke-miterlimit="1.5" stroke-linecap="round" stroke-linejoin="round"/>
<path fill-rule="evenodd" clip-rule="evenodd" d="M393.483 205.813L420.18 193.609L393.065 168.988L393.483 205.813Z" fill="#0A3F57" stroke="#0A3F57" stroke-width="2.33464" stroke-miterlimit="1.5" stroke-linecap="round" stroke-linejoin="round"/>
<path fill-rule="evenodd" clip-rule="evenodd" d="M284.011 337.879C284.011 337.879 287.916 461.682 288.585 482.934C288.645 484.806 287.58 486.531 285.884 487.323C285.71 487.405 285.531 487.487 285.35 487.571C281.467 489.379 276.844 488 274.585 484.358C274.281 483.871 274.091 483.561 274.086 483.554C274.091 483.372 277.831 337.065 277.831 337.065L284.011 337.879Z" fill="#0F5F85" stroke="#0F5F85" stroke-width="1.91091" stroke-miterlimit="1.5" stroke-linecap="round" stroke-linejoin="round"/>
<path fill-rule="evenodd" clip-rule="evenodd" d="M282.84 333.46C282.84 333.46 290.265 295.159 292.554 283.342C292.606 283.078 292.457 282.816 292.204 282.726C291.951 282.634 291.67 282.741 291.542 282.977C288.772 288.036 283.278 298.063 280.556 303.033C279.505 304.954 279.004 307.124 279.108 309.31C279.441 316.304 280.184 331.84 280.184 331.84L282.84 333.46Z" fill="#02496D" stroke="#02496D" stroke-width="1.89852" stroke-miterlimit="1.5" stroke-linecap="round" stroke-linejoin="round"/>
<path fill-rule="evenodd" clip-rule="evenodd" d="M284.92 339.181C284.92 339.181 306.998 361.158 314.948 369.072C315.14 369.264 315.446 369.287 315.663 369.122C315.879 368.954 315.941 368.656 315.808 368.417C312.485 362.538 305.754 350.626 302.306 344.527C300.925 342.08 298.723 340.205 296.088 339.228C291.717 337.609 285.394 335.266 285.394 335.266L284.92 339.181Z" fill="#02496D" stroke="#02496D" stroke-width="2.61729" stroke-miterlimit="1.5" stroke-linecap="round" stroke-linejoin="round"/>
<path fill-rule="evenodd" clip-rule="evenodd" d="M277.654 331.252C277.654 331.252 249.171 342.416 240.788 345.702C240.55 345.795 240.407 346.042 240.448 346.296C240.488 346.549 240.698 346.739 240.953 346.753C245.369 347.028 254.734 347.607 260.753 347.979C264.253 348.195 267.672 346.856 270.092 344.316C273.928 340.29 279.28 334.676 279.28 334.676L277.654 331.252Z" fill="#02496D" stroke="#02496D" stroke-width="2.03205" stroke-miterlimit="1.5" stroke-linecap="round" stroke-linejoin="round"/>
<path d="M280.597 340.432C283.706 341.756 286.226 339.28 286.226 334.902C286.226 330.525 283.706 325.903 280.597 324.579C277.489 323.256 274.969 325.732 274.969 330.109C274.969 334.487 277.489 339.109 280.597 340.432Z" fill="#248EBF" stroke="#248EBF" stroke-width="1.89622" stroke-miterlimit="1.5" stroke-linecap="round" stroke-linejoin="round"/>
<path d="M356.906 477.6L303.716 454.953V543.782L356.906 566.429V477.6Z" fill="#0C567B" stroke="#0C567B" stroke-width="1.90476" stroke-miterlimit="1.5" stroke-linecap="round" stroke-linejoin="round"/>
<path fill-rule="evenodd" clip-rule="evenodd" d="M332.16 430.43L360.601 487.821L303.716 463.601L332.16 430.43Z" fill="#053F5A" stroke="#053F5A" stroke-width="1.88645" stroke-miterlimit="1.5" stroke-linecap="round" stroke-linejoin="round"/>
<path d="M327.359 465.847C330.713 467.275 333.431 464.954 333.431 460.663C333.431 456.372 330.713 451.736 327.359 450.308C324.006 448.88 321.287 451.201 321.287 455.492C321.287 459.783 324.006 464.419 327.359 465.847Z" fill="#71A9D0" stroke="#08205C" stroke-width="1.00841" stroke-miterlimit="1.5" stroke-linecap="round" stroke-linejoin="round"/>
<path d="M444.282 440.401L356.907 477.604V566.433L444.282 529.23V440.401Z" fill="#03364E" stroke="#03364E" stroke-width="2.89083" stroke-miterlimit="1.5" stroke-linecap="round" stroke-linejoin="round"/>
<path fill-rule="evenodd" clip-rule="evenodd" d="M438.607 465.224V472.042C438.607 472.403 438.359 472.797 438.057 472.926L419.639 480.768C419.333 480.898 419.089 480.713 419.089 480.352V473.535C419.089 473.174 419.333 472.781 419.639 472.651L438.057 464.809C438.359 464.68 438.607 464.863 438.607 465.224Z" fill="#448CBE" stroke="#08205C" stroke-width="1.52343" stroke-miterlimit="1.5" stroke-linecap="round" stroke-linejoin="round"/>
<path fill-rule="evenodd" clip-rule="evenodd" d="M412.598 476.301V483.118C412.598 483.479 412.35 483.874 412.048 484.002L393.63 491.844C393.325 491.974 393.08 491.79 393.08 491.429V484.611C393.08 484.25 393.325 483.857 393.63 483.727L412.048 475.885C412.35 475.757 412.598 475.94 412.598 476.301Z" fill="#448CBE" stroke="#08205C" stroke-width="1.52343" stroke-miterlimit="1.5" stroke-linecap="round" stroke-linejoin="round"/>
<path fill-rule="evenodd" clip-rule="evenodd" d="M387.021 487.21V493.996C387.021 494.361 386.769 494.766 386.456 494.9L368.064 502.73C367.755 502.862 367.503 502.672 367.503 502.306V495.52C367.503 495.15 367.755 494.745 368.064 494.613L386.456 486.783C386.769 486.649 387.021 486.84 387.021 487.21Z" fill="#448CBE" stroke="#08205C" stroke-width="1.52343" stroke-miterlimit="1.5" stroke-linecap="round" stroke-linejoin="round"/>
<path d="M336.619 515.446L318.096 507.559V548.951L336.619 556.838V515.446Z" fill="#0575AD" stroke="#0575AD" stroke-width="1.90461" stroke-miterlimit="1.5" stroke-linecap="round" stroke-linejoin="round"/>
<path fill-rule="evenodd" clip-rule="evenodd" d="M357.52 488.401L453.585 446.33L422.841 391.818L327.357 430.027L357.52 488.401Z" fill="#07587F" stroke="#07587F" stroke-width="2.26197" stroke-miterlimit="1.5" stroke-linecap="round" stroke-linejoin="round"/>
<path fill-rule="evenodd" clip-rule="evenodd" d="M327.963 433.42L326.634 430.344L297.153 461.875L303.123 463.633L327.963 433.42Z" fill="#07587F" stroke="#07587F" stroke-width="2.29202" stroke-miterlimit="1.5" stroke-linecap="round" stroke-linejoin="round"/>
<path fill-rule="evenodd" clip-rule="evenodd" d="M479.977 297.294C479.977 297.294 483.044 394.555 483.607 412.404C483.66 414.102 482.696 415.667 481.159 416.383C480.986 416.464 480.809 416.546 480.628 416.628C477.773 417.959 474.376 416.944 472.716 414.268C472.34 413.663 472.081 413.247 472.077 413.239C472.081 413.074 475.058 296.646 475.058 296.646L479.977 297.294Z" fill="#0F5F85" stroke="#0F5F85" stroke-width="1.91052" stroke-miterlimit="1.5" stroke-linecap="round" stroke-linejoin="round"/>
<path fill-rule="evenodd" clip-rule="evenodd" d="M479.044 293.775C479.044 293.775 484.678 264.712 486.641 254.586C486.691 254.322 486.543 254.06 486.291 253.969C486.038 253.877 485.757 253.985 485.628 254.22C483.453 258.188 479.692 265.056 477.554 268.958C476.504 270.879 476.001 273.049 476.106 275.237C476.385 281.067 476.93 292.486 476.93 292.486L479.044 293.775Z" fill="#02496D" stroke="#02496D" stroke-width="1.89788" stroke-miterlimit="1.5" stroke-linecap="round" stroke-linejoin="round"/>
<path fill-rule="evenodd" clip-rule="evenodd" d="M480.7 298.329C480.7 298.329 497.275 314.83 504.027 321.55C504.22 321.741 504.524 321.762 504.741 321.598C504.959 321.431 505.02 321.133 504.885 320.894C502.278 316.282 497.675 308.133 494.975 303.356C493.593 300.911 491.39 299.035 488.758 298.058C485.361 296.8 481.077 295.213 481.077 295.213L480.7 298.329Z" fill="#02496D" stroke="#02496D" stroke-width="2.61818" stroke-miterlimit="1.5" stroke-linecap="round" stroke-linejoin="round"/>
<path fill-rule="evenodd" clip-rule="evenodd" d="M474.917 292.018C474.917 292.018 453.245 300.512 446.044 303.336C445.805 303.429 445.664 303.676 445.704 303.928C445.743 304.181 445.953 304.373 446.209 304.389C449.6 304.599 455.807 304.982 460.34 305.263C463.839 305.478 467.256 304.138 469.677 301.599C472.627 298.504 476.211 294.743 476.211 294.743L474.917 292.018Z" fill="#02496D" stroke="#02496D" stroke-width="2.03174" stroke-miterlimit="1.5" stroke-linecap="round" stroke-linejoin="round"/>
<path d="M477.26 299.322C479.734 300.375 481.74 298.405 481.74 294.921C481.74 291.436 479.734 287.758 477.26 286.704C474.786 285.651 472.78 287.621 472.78 291.106C472.78 294.59 474.786 298.268 477.26 299.322Z" fill="#248EBF" stroke="#248EBF" stroke-width="1.89609" stroke-miterlimit="1.5" stroke-linecap="round" stroke-linejoin="round"/>
<path d="M348.587 491.322L332.9 484.643V507.06L348.587 513.739V491.322Z" fill="white"/>
<path d="M348.587 491.322L332.9 484.643V507.06L348.587 513.739V491.322Z" fill="url(#paint0_linear_2301_16775)"/>
<path d="M348.587 491.322L332.9 484.643V507.06L348.587 513.739V491.322Z" stroke="#08205C" stroke-width="1.04303" stroke-miterlimit="1.5" stroke-linecap="round" stroke-linejoin="round"/>
<path fill-rule="evenodd" clip-rule="evenodd" d="M340.739 488.238V510.009V488.238Z" fill="#D9D9D9"/>
<path d="M340.739 488.238V510.009" stroke="#08205C" stroke-width="1.0669" stroke-miterlimit="1.5" stroke-linecap="round" stroke-linejoin="round"/>
<path d="M348.147 502.916C348.459 503.051 348.822 502.907 348.957 502.594C349.092 502.282 348.948 501.919 348.635 501.784L348.147 502.916ZM332.897 495.659L332.653 496.225L348.147 502.916L348.391 502.35L348.635 501.784L333.142 495.093L332.897 495.659Z" fill="#08205C"/>
<path d="M323.133 480.256L307.446 473.577V495.994L323.133 502.673V480.256Z" fill="white"/>
<path d="M323.133 480.256L307.446 473.577V495.994L323.133 502.673V480.256Z" fill="url(#paint1_linear_2301_16775)"/>
<path d="M323.133 480.256L307.446 473.577V495.994L323.133 502.673V480.256Z" stroke="#08205C" stroke-width="1.04303" stroke-miterlimit="1.5" stroke-linecap="round" stroke-linejoin="round"/>
<path fill-rule="evenodd" clip-rule="evenodd" d="M315.286 477.172V498.943V477.172Z" fill="#D9D9D9"/>
<path d="M315.286 477.172V498.943" stroke="#08205C" stroke-width="1.0669" stroke-miterlimit="1.5" stroke-linecap="round" stroke-linejoin="round"/>
<path d="M322.693 491.85C323.006 491.985 323.369 491.841 323.504 491.528C323.639 491.215 323.495 490.853 323.182 490.718L322.693 491.85ZM307.444 484.593L307.2 485.159L322.693 491.85L322.938 491.284L323.182 490.718L307.689 484.027L307.444 484.593Z" fill="#08205C"/>
<defs>
<linearGradient id="paint0_linear_2301_16775" x1="340.744" y1="487.982" x2="332.664" y2="506.959" gradientUnits="userSpaceOnUse">
<stop offset="0.269231" stop-color="#94CDF8"/>
<stop offset="1" stop-color="#078BCF"/>
</linearGradient>
<linearGradient id="paint1_linear_2301_16775" x1="315.29" y1="476.916" x2="307.21" y2="495.894" gradientUnits="userSpaceOnUse">
<stop offset="0.269231" stop-color="#94CDF8"/>
<stop offset="1" stop-color="#078BCF"/>
</linearGradient>
</defs>
</svg>
