<svg width="418" height="466" viewBox="0 0 418 466" fill="none" xmlns="http://www.w3.org/2000/svg">
<circle cx="213.211" cy="232.695" r="170.094" stroke="#078CCF" stroke-width="5.13491" stroke-dasharray="10.27 10.27"/>
<rect x="147.843" y="0.531982" width="124.739" height="124.739" rx="62.3696" fill="#EDF9FF"/>
<path opacity="0.4" d="M232.698 57.3768V80.344C232.602 89.4988 230.096 91.8115 220.556 91.8115H190.233C180.532 91.8115 178.091 89.4024 178.091 79.83V57.3768C178.091 48.7038 180.115 45.9092 187.727 45.4595C188.498 45.4274 189.334 45.3953 190.233 45.3953H220.556C230.257 45.3953 232.698 47.8044 232.698 57.3768Z" fill="#078CCF"/>
<path d="M242.335 45.9734V68.4267C242.335 77.0997 240.311 79.8943 232.698 80.344V57.3768C232.698 47.8044 230.257 45.3953 220.556 45.3953H190.233C189.334 45.3953 188.498 45.4274 187.728 45.4595C187.824 36.3047 190.33 33.9919 199.87 33.9919H230.193C239.894 33.9919 242.335 36.4011 242.335 45.9734Z" fill="#07112B"/>
<path d="M194.022 83.9733H188.497C187.18 83.9733 186.088 82.8812 186.088 81.5642C186.088 80.2472 187.18 79.155 188.497 79.155H194.022C195.339 79.155 196.431 80.2472 196.431 81.5642C196.431 82.8812 195.371 83.9733 194.022 83.9733Z" fill="#07112B"/>
<path d="M211.979 83.9733H200.929C199.612 83.9733 198.52 82.8812 198.52 81.5642C198.52 80.2472 199.612 79.155 200.929 79.155H211.979C213.296 79.155 214.388 80.2472 214.388 81.5642C214.388 82.8812 213.328 83.9733 211.979 83.9733Z" fill="#07112B"/>
<path d="M232.698 62.4517H178.091V67.27H232.698V62.4517Z" fill="#07112B"/>
<rect x="293.261" y="86.6118" width="124.739" height="124.739" rx="62.3696" fill="#EDF9FF"/>
<path d="M387.752 129.708V137.482C387.752 142.557 384.54 145.769 379.464 145.769H368.479V123.316C368.479 119.751 371.402 116.86 374.967 116.86C378.468 116.892 381.681 118.305 383.993 120.618C386.306 122.963 387.752 126.175 387.752 129.708Z" fill="#07112B"/>
<path opacity="0.4" d="M323.509 132.921V177.891C323.509 180.558 326.528 182.067 328.648 180.461L334.141 176.35C335.426 175.386 337.225 175.514 338.381 176.671L343.714 182.035C344.966 183.288 347.022 183.288 348.275 182.035L353.671 176.639C354.796 175.514 356.594 175.386 357.847 176.35L363.34 180.461C365.46 182.035 368.48 180.525 368.48 177.891V123.284C368.48 119.751 371.371 116.86 374.904 116.86L339.57 116.86H336.358C326.721 116.86 323.509 122.609 323.509 129.708V132.921Z" fill="#078CCF"/>
<path d="M355.631 141.754H336.357C335.04 141.754 333.948 140.662 333.948 139.345C333.948 138.028 335.04 136.936 336.357 136.936H355.631C356.948 136.936 358.04 138.028 358.04 139.345C358.04 140.662 356.948 141.754 355.631 141.754Z" fill="#07112B"/>
<path d="M353.221 154.603H338.767C337.45 154.603 336.357 153.511 336.357 152.194C336.357 150.877 337.45 149.784 338.767 149.784H353.221C354.538 149.784 355.631 150.877 355.631 152.194C355.631 153.511 354.538 154.603 353.221 154.603Z" fill="#07112B"/>
<rect x="290.693" y="259.592" width="124.739" height="124.739" rx="62.3696" fill="#EDF9FF"/>
<path d="M375.548 331.599C368.449 331.599 362.699 337.348 362.699 344.447C362.699 346.857 363.374 349.137 364.562 351.065C366.779 354.791 370.858 357.296 375.548 357.296C380.238 357.296 384.317 354.791 386.534 351.065C387.722 349.137 388.397 346.857 388.397 344.447C388.397 337.348 382.647 331.599 375.548 331.599ZM382.197 343.066L375.355 349.394C374.906 349.812 374.295 350.037 373.717 350.037C373.107 350.037 372.497 349.812 372.015 349.33L368.834 346.15C367.903 345.218 367.903 343.677 368.834 342.745C369.766 341.813 371.308 341.813 372.239 342.745L373.781 344.287L378.921 339.533C379.884 338.633 381.426 338.698 382.326 339.661C383.225 340.625 383.161 342.135 382.197 343.066Z" fill="#07112B"/>
<path d="M385.185 307.635V312.325H320.941V307.635C320.941 300.279 326.916 294.337 334.272 294.337H371.855C379.211 294.337 385.185 300.279 385.185 307.635Z" fill="#07112B"/>
<path opacity="0.4" d="M320.941 312.325V336.288C320.941 343.644 326.884 349.587 334.24 349.587H354.348C356.211 349.587 357.817 348.013 357.657 346.15C357.207 341.235 358.781 335.903 363.15 331.663C364.949 329.896 367.165 328.547 369.574 327.776C373.589 326.491 377.476 326.652 380.913 327.808C383.001 328.515 385.185 327.005 385.185 324.789V312.325H320.941ZM340.215 338.826H333.79C332.473 338.826 331.381 337.734 331.381 336.417C331.381 335.1 332.473 334.008 333.79 334.008H340.215C341.532 334.008 342.624 335.1 342.624 336.417C342.624 337.734 341.532 338.826 340.215 338.826Z" fill="#078CCF"/>
<path d="M342.624 336.417C342.624 337.734 341.531 338.826 340.214 338.826H333.79C332.473 338.826 331.381 337.734 331.381 336.417C331.381 335.1 332.473 334.008 333.79 334.008H340.214C341.531 334.008 342.624 335.1 342.624 336.417Z" fill="#07112B"/>
<rect x="2.56738" y="86.6118" width="124.739" height="124.739" rx="62.3696" fill="#EDF9FF"/>
<path opacity="0.4" d="M95.9672 143.97L92.8192 157.397C90.121 168.993 84.7887 173.683 74.7667 172.72C73.1606 172.591 71.426 172.302 69.5629 171.852L64.1664 170.567C50.7715 167.387 46.6278 160.77 49.7758 147.343L52.9237 133.884C53.5662 131.154 54.3371 128.777 55.3007 126.817C59.059 119.044 65.4513 116.956 76.18 119.493L81.5444 120.746C95.0035 123.894 99.1151 130.543 95.9672 143.97Z" fill="#078CCF"/>
<path d="M74.7678 172.72C72.7763 174.069 70.2707 175.193 67.2192 176.189L62.1439 177.859C49.3914 181.971 42.6779 178.534 38.5342 165.782L34.4226 153.093C30.311 140.341 33.7159 133.595 46.4683 129.484L51.5436 127.813C52.8606 127.396 54.1134 127.042 55.3019 126.818C54.3382 128.777 53.5673 131.154 52.9249 133.884L49.7769 147.344C46.629 160.771 50.7727 167.388 64.1676 170.568L69.5641 171.853C71.4271 172.302 73.1617 172.591 74.7678 172.72Z" fill="#07112B"/>
<path d="M82.5731 144.195C82.3803 144.195 82.1876 144.163 81.9627 144.131L66.3836 140.18C65.0987 139.859 64.3278 138.542 64.649 137.257C64.9702 135.972 66.2872 135.201 67.5721 135.523L83.1513 139.474C84.4361 139.795 85.2071 141.112 84.8858 142.397C84.6289 143.457 83.6331 144.195 82.5731 144.195Z" fill="#07112B"/>
<path d="M73.1607 155.052C72.968 155.052 72.7753 155.02 72.5504 154.988L63.2029 152.611C61.918 152.29 61.1471 150.973 61.4683 149.688C61.7895 148.403 63.1065 147.632 64.3914 147.953L73.7389 150.33C75.0238 150.651 75.7947 151.968 75.4735 153.253C75.2165 154.345 74.2529 155.052 73.1607 155.052Z" fill="#07112B"/>
<rect y="259.592" width="124.739" height="124.739" rx="62.3696" fill="#EDF9FF"/>
<path opacity="0.4" d="M49.5215 313.286V310.93C49.5215 309.538 50.6591 308.387 52.0645 308.387C54.487 308.387 55.4774 306.674 54.2595 304.573C53.5635 303.368 53.9784 301.802 55.1964 301.106L57.5118 299.781C58.5692 299.152 59.9344 299.527 60.5634 300.584L60.7106 300.838C61.9152 302.94 63.8961 302.94 65.114 300.838L65.2613 300.584C65.8903 299.527 67.2555 299.152 68.3128 299.781L70.6283 301.106C71.8463 301.802 72.2612 303.368 71.5652 304.573C70.3472 306.674 71.3377 308.387 73.7602 308.387C75.1522 308.387 76.3032 309.525 76.3032 310.93V313.286C76.3032 314.678 75.1655 315.829 73.7602 315.829C71.3377 315.829 70.3472 317.542 71.5652 319.643C72.2612 320.861 71.8463 322.414 70.6283 323.11L68.3128 324.435C67.2555 325.064 65.8903 324.689 65.2613 323.632L65.114 323.377C63.9095 321.276 61.9286 321.276 60.7106 323.377L60.5634 323.632C59.9344 324.689 58.5692 325.064 57.5118 324.435L55.1964 323.11C53.9784 322.414 53.5635 320.848 54.2595 319.643C55.4774 317.542 54.487 315.829 52.0645 315.829C50.6591 315.829 49.5215 314.678 49.5215 313.286Z" fill="#078CCF"/>
<path d="M62.9055 316.465C65.3079 316.465 67.2554 314.517 67.2554 312.115C67.2554 309.713 65.3079 307.765 62.9055 307.765C60.5032 307.765 58.5557 309.713 58.5557 312.115C58.5557 314.517 60.5032 316.465 62.9055 316.465Z" fill="#07112B"/>
<path opacity="0.4" d="M32.657 343.327C31.34 343.327 30.2479 342.235 30.2479 340.918V322.608C30.0873 313.903 33.3316 305.68 39.3705 299.512C45.4094 293.377 53.5042 290.004 62.2093 290.004C80.0049 290.004 94.4919 304.491 94.4919 322.287V340.596C94.4919 341.913 93.3997 343.005 92.0827 343.005C90.7657 343.005 89.6736 341.913 89.6736 340.596V322.287C89.6736 307.157 77.3709 294.822 62.2093 294.822C54.7891 294.822 47.915 297.681 42.8076 302.885C37.6681 308.121 34.9377 315.091 35.0662 322.544V340.885C35.0662 342.235 34.0062 343.327 32.657 343.327Z" fill="#078CCF"/>
<path d="M42.9041 323.412H42.4865C35.7409 323.412 30.248 328.905 30.248 335.65V341.689C30.248 348.435 35.7409 353.928 42.4865 353.928H42.9041C49.6497 353.928 55.1426 348.435 55.1426 341.689V335.65C55.1426 328.905 49.6497 323.412 42.9041 323.412Z" fill="#07112B"/>
<path d="M82.2528 323.412H81.8351C75.0895 323.412 69.5967 328.905 69.5967 335.65V341.689C69.5967 348.435 75.0895 353.928 81.8351 353.928H82.2528C88.9984 353.928 94.4912 348.435 94.4912 341.689V335.65C94.4912 328.905 88.9984 323.412 82.2528 323.412Z" fill="#07112B"/>
<rect x="147.843" y="340.54" width="124.739" height="124.739" rx="62.3696" fill="#EDF9FF"/>
<path opacity="0.4" d="M200.576 370.786C192.16 370.786 185.318 377.628 185.318 386.044C185.318 394.299 191.775 400.981 200.191 401.27C200.448 401.238 200.705 401.238 200.898 401.27C200.962 401.27 200.994 401.27 201.058 401.27C201.09 401.27 201.09 401.27 201.122 401.27C209.346 400.981 215.802 394.299 215.834 386.044C215.834 377.628 208.992 370.786 200.576 370.786Z" fill="#078CCF"/>
<path d="M216.894 409.818C207.932 403.843 193.316 403.843 184.29 409.818C180.21 412.549 177.962 416.243 177.962 420.194C177.962 424.145 180.21 427.806 184.258 430.505C188.755 433.524 194.665 435.034 200.576 435.034C206.486 435.034 212.397 433.524 216.894 430.505C220.941 427.774 223.19 424.112 223.19 420.129C223.158 416.178 220.941 412.516 216.894 409.818Z" fill="#07112B"/>
<path opacity="0.4" d="M235.878 387.939C236.392 394.171 231.959 399.632 225.824 400.37C225.792 400.37 225.792 400.37 225.76 400.37H225.663C225.47 400.37 225.278 400.37 225.117 400.435C222.001 400.595 219.142 399.599 216.99 397.769C220.299 394.813 222.194 390.38 221.809 385.562C221.584 382.96 220.684 380.583 219.335 378.56C220.556 377.949 221.969 377.564 223.415 377.435C229.711 376.889 235.332 381.579 235.878 387.939Z" fill="#078CCF"/>
<path d="M242.302 417.653C242.045 420.769 240.054 423.467 236.713 425.298C233.501 427.065 229.453 427.9 225.438 427.804C227.751 425.716 229.1 423.114 229.357 420.351C229.678 416.368 227.783 412.546 223.993 409.494C221.84 407.792 219.335 406.443 216.604 405.447C223.703 403.391 232.633 404.772 238.126 409.205C241.081 411.582 242.591 414.569 242.302 417.653Z" fill="#07112B"/>
<path d="M130.542 213.512V222.813H137.263C139.114 222.813 140.612 222.47 141.756 221.783C142.92 221.077 143.502 219.837 143.502 218.062C143.502 216.097 142.739 214.8 141.213 214.17C139.896 213.731 138.217 213.512 136.175 213.512H130.542ZM130.542 229.797V241.045H137.263C139.114 241.045 140.554 240.797 141.585 240.3C143.454 239.385 144.389 237.629 144.389 235.034C144.389 232.84 143.483 231.333 141.67 230.512C140.659 230.054 139.238 229.816 137.406 229.797H130.542ZM138.98 206.185C144.151 206.261 147.814 207.759 149.97 210.678C151.268 212.472 151.917 214.619 151.917 217.118C151.917 219.694 151.268 221.764 149.97 223.329C149.245 224.206 148.177 225.008 146.765 225.733C148.921 226.515 150.543 227.755 151.63 229.453C152.737 231.151 153.29 233.212 153.29 235.635C153.29 238.135 152.661 240.377 151.401 242.361C150.6 243.678 149.598 244.784 148.396 245.681C147.042 246.711 145.439 247.417 143.588 247.799C141.756 248.181 139.762 248.371 137.606 248.371H122.128V206.185H138.98Z" fill="#D5ECF8"/>
<path d="M159.573 218.995H167.844V248.371H159.573V218.995Z" fill="#D5ECF8"/>
<path d="M183.514 248.371H175.358V206.185H183.514V248.371Z" fill="#D5ECF8"/>
<path d="M199.242 248.371H191.085V206.185H199.242V248.371Z" fill="#D5ECF8"/>
<path d="M223.842 233.203C223.326 233.527 222.802 233.794 222.268 234.004C221.752 234.195 221.037 234.376 220.121 234.548L218.289 234.891C216.572 235.197 215.341 235.569 214.597 236.007C213.338 236.752 212.708 237.906 212.708 239.47C212.708 240.863 213.09 241.875 213.853 242.504C214.635 243.115 215.58 243.42 216.687 243.42C218.442 243.42 220.054 242.905 221.523 241.875C223.012 240.844 223.784 238.965 223.842 236.236V233.203ZM218.89 229.396C220.398 229.205 221.476 228.967 222.124 228.681C223.288 228.185 223.87 227.412 223.87 226.362C223.87 225.084 223.422 224.206 222.525 223.729C221.647 223.233 220.35 222.985 218.633 222.985C216.706 222.985 215.341 223.462 214.54 224.416C213.968 225.122 213.586 226.076 213.395 227.278H205.525C205.696 224.55 206.46 222.308 207.814 220.552C209.97 217.805 213.672 216.431 218.919 216.431C222.334 216.431 225.368 217.108 228.02 218.463C230.672 219.818 231.998 222.375 231.998 226.133V240.444C231.998 241.436 232.018 242.638 232.056 244.05C232.113 245.118 232.275 245.843 232.542 246.225C232.809 246.606 233.21 246.921 233.744 247.169V248.371H224.872C224.624 247.742 224.452 247.15 224.357 246.597C224.261 246.044 224.185 245.414 224.128 244.708C223.002 245.929 221.705 246.969 220.235 247.828C218.48 248.839 216.496 249.344 214.282 249.344C211.459 249.344 209.121 248.543 207.27 246.94C205.439 245.319 204.523 243.029 204.523 240.071C204.523 236.236 206.002 233.46 208.959 231.743C210.581 230.808 212.966 230.14 216.114 229.74L218.89 229.396Z" fill="#D5ECF8"/>
<path d="M255.625 216.431C255.778 216.431 255.902 216.441 255.997 216.46C256.112 216.46 256.35 216.469 256.713 216.488V224.845C256.198 224.788 255.74 224.75 255.339 224.731C254.938 224.712 254.614 224.702 254.366 224.702C251.084 224.702 248.88 225.771 247.754 227.908C247.125 229.11 246.81 230.961 246.81 233.46V248.371H238.596V217.175H246.381V222.613C247.64 220.533 248.737 219.112 249.672 218.349C251.198 217.07 253.183 216.431 255.625 216.431Z" fill="#D5ECF8"/>
<path d="M261.049 218.995H269.32V248.371H261.049V218.995Z" fill="#D5ECF8"/>
<path d="M274.888 223.815V217.175H300.188V223.958L284.361 241.674H300.732V248.371H273.8V242.018L289.799 223.815H274.888Z" fill="#D5ECF8"/>
<path d="M166.931 214.546C167.882 213.691 168.357 212.533 168.357 211.073C168.357 209.612 167.882 208.473 166.931 207.653C166.015 206.799 164.924 206.371 163.656 206.371C162.388 206.371 161.279 206.799 160.328 207.653C159.412 208.473 158.954 209.612 158.954 211.073C158.954 212.533 159.412 213.691 160.328 214.546C161.279 215.365 162.388 215.774 163.656 215.774C164.924 215.774 166.015 215.365 166.931 214.546Z" fill="#D5ECF8"/>
<path d="M268.545 214.546C269.496 213.691 269.972 212.533 269.972 211.073C269.972 209.612 269.496 208.473 268.545 207.653C267.63 206.799 266.538 206.371 265.27 206.371C264.002 206.371 262.893 206.799 261.942 207.653C261.026 208.473 260.569 209.612 260.569 211.073C260.569 212.533 261.026 213.691 261.942 214.546C262.893 215.365 264.002 215.774 265.27 215.774C266.538 215.774 267.63 215.365 268.545 214.546Z" fill="#D5ECF8"/>
</svg>
