<svg width="32" height="32" viewBox="0 0 32 32" fill="none" xmlns="http://www.w3.org/2000/svg">
<path d="M31.5067 6.22222C30.8907 5.16355 29.7573 4.44444 28.4444 4.44444H16V6.22222H31.5067ZM0 22.2222H32V24H0V22.2222ZM16 15.1111H32V16.8889H16V15.1111ZM16 11.5556H32V13.3333H16V11.5556ZM0 18.6667H32V20.4444H0V18.6667ZM3.55556 27.5556H28.4444C29.7573 27.5556 30.8907 26.8364 31.5067 25.7778H0.493333C1.10933 26.8364 2.24267 27.5556 3.55556 27.5556ZM16 8H32V9.77778H16V8Z" fill="#B22334"/>
<path d="M0.0604444 24.6036C0.0752593 24.6865 0.0927407 24.7686 0.112889 24.8498C0.136593 24.9387 0.163852 25.0264 0.194667 25.1129C0.273778 25.3431 0.369778 25.5653 0.490667 25.7733L0.493333 25.7778H31.5067L31.5084 25.7742C31.6289 25.5653 31.7278 25.3446 31.8036 25.1156C31.8613 24.9485 31.9064 24.7774 31.9387 24.6036C31.9751 24.408 32 24.2071 32 24H0C0 24.2071 0.0248889 24.4071 0.0604444 24.6036ZM0 20.4445H32V22.2222H0V20.4445ZM0 16.8889V18.6667H32V16.8889H16H0ZM16 13.3333H32V15.1111H16V13.3333ZM16 9.77778H32V11.5556H16V9.77778ZM0.113778 7.15023C0.136 7.05956 0.167111 6.97334 0.195556 6.88623C0.164885 6.97314 0.137605 7.0612 0.113778 7.15023ZM16 8.00001H32C32 7.7929 31.9751 7.59201 31.9387 7.39556C31.9076 7.22143 31.8621 7.05018 31.8027 6.88356C31.7268 6.65361 31.6276 6.43202 31.5067 6.22223H16V8.00001Z" fill="#EEEEEE"/>
<path d="M16 4.44444H3.55556C2.61256 4.44444 1.70819 4.81904 1.0414 5.48584C0.374602 6.15264 0 7.05701 0 8L0 16.8889H16V4.44444Z" fill="#3C3B6E"/>
<path d="M1.77869 6.86756L2.32802 7.26667L2.11824 7.91112L2.66669 7.5129L3.21602 7.91112L3.00624 7.26667L3.55558 6.86756H2.87646L2.66669 6.22223L2.4578 6.86756H1.77869ZM3.55646 8.64534L4.1058 9.04445L3.89602 9.6889L4.44446 9.29067L4.9938 9.6889L4.78402 9.04445L5.33335 8.64534H4.65424L4.44446 8.00001L4.23558 8.64534H3.55646ZM7.11202 8.64534L7.66135 9.04445L7.45158 9.6889L8.00002 9.29067L8.54935 9.6889L8.33958 9.04445L8.88891 8.64534H8.2098L8.00002 8.00001L7.79113 8.64534H7.11202ZM10.6676 8.64534L11.2169 9.04445L11.0071 9.6889L11.5556 9.29067L12.1049 9.6889L11.8951 9.04445L12.4445 8.64534H11.7654L11.5556 8.00001L11.3467 8.64534H10.6676ZM3.55646 12.2009L4.1058 12.6L3.89602 13.2445L4.44446 12.8462L4.9938 13.2445L4.78402 12.6L5.33335 12.2009H4.65424L4.44446 11.5556L4.23558 12.2009H3.55646ZM7.11202 12.2009L7.66135 12.6L7.45158 13.2445L8.00002 12.8462L8.54935 13.2445L8.33958 12.6L8.88891 12.2009H8.2098L8.00002 11.5556L7.79113 12.2009H7.11202ZM10.6676 12.2009L11.2169 12.6L11.0071 13.2445L11.5556 12.8462L12.1049 13.2445L11.8951 12.6L12.4445 12.2009H11.7654L11.5556 11.5556L11.3467 12.2009H10.6676ZM5.33424 6.86756L5.88358 7.26667L5.6738 7.91112L6.22224 7.5129L6.77158 7.91112L6.5618 7.26667L7.11113 6.86756H6.43202L6.22224 6.22223L6.01335 6.86756H5.33424ZM8.8898 6.86756L9.43913 7.26667L9.22935 7.91112L9.7778 7.5129L10.3271 7.91112L10.1174 7.26667L10.6667 6.86756H9.98758L9.7778 6.22223L9.56891 6.86756H8.8898ZM12.4454 6.86756L12.9947 7.26667L12.7849 7.91112L13.3334 7.5129L13.8827 7.91112L13.6729 7.26667L14.2222 6.86756H13.5431L13.3334 6.22223L13.1245 6.86756H12.4454ZM1.77869 10.4231L2.32802 10.8222L2.11824 11.4667L2.66669 11.0685L3.21602 11.4667L3.00624 10.8222L3.55558 10.4231H2.87646L2.66669 9.77778L2.4578 10.4231H1.77869ZM5.6738 11.4667L6.22224 11.0685L6.77158 11.4667L6.5618 10.8222L7.11113 10.4231H6.43202L6.22224 9.77778L6.01335 10.4231H5.33424L5.88358 10.8222L5.6738 11.4667ZM8.8898 10.4231L9.43913 10.8222L9.22935 11.4667L9.7778 11.0685L10.3271 11.4667L10.1174 10.8222L10.6667 10.4231H9.98758L9.7778 9.77778L9.56891 10.4231H8.8898ZM12.4454 10.4231L12.9947 10.8222L12.7849 11.4667L13.3334 11.0685L13.8827 11.4667L13.6729 10.8222L14.2222 10.4231H13.5431L13.3334 9.77778L13.1245 10.4231H12.4454ZM1.77869 13.9787L2.32802 14.3778L2.11824 15.0222L2.66669 14.624L3.21602 15.0222L3.00624 14.3778L3.55558 13.9787H2.87646L2.66669 13.3333L2.4578 13.9787H1.77869ZM5.6738 15.0222L6.22224 14.624L6.77158 15.0222L6.5618 14.3778L7.11113 13.9787H6.43202L6.22224 13.3333L6.01335 13.9787H5.33424L5.88358 14.3778L5.6738 15.0222ZM8.8898 13.9787L9.43913 14.3778L9.22935 15.0222L9.7778 14.624L10.3271 15.0222L10.1174 14.3778L10.6667 13.9787H9.98758L9.7778 13.3333L9.56891 13.9787H8.8898ZM12.4454 13.9787L12.9947 14.3778L12.7849 15.0222L13.3334 14.624L13.8827 15.0222L13.6729 14.3778L14.2222 13.9787H13.5431L13.3334 13.3333L13.1245 13.9787H12.4454Z" fill="white"/>
</svg>
