<svg width="32" height="32" viewBox="0 0 32 32" fill="none" xmlns="http://www.w3.org/2000/svg">
<path d="M32 24C32 24.943 31.6254 25.8473 30.9586 26.5141C30.2918 27.1809 29.3874 27.5555 28.4444 27.5555H3.55556C2.61256 27.5555 1.70819 27.1809 1.0414 26.5141C0.374602 25.8473 0 24.943 0 24V7.99998C0 7.05699 0.374602 6.15262 1.0414 5.48583C1.70819 4.81903 2.61256 4.44443 3.55556 4.44443H28.4444C29.3874 4.44443 30.2918 4.81903 30.9586 5.48583C31.6254 6.15262 32 7.05699 32 7.99998V24Z" fill="#C60A1D"/>
<path d="M0 10.6667H32V21.3333H0V10.6667Z" fill="#FFC400"/>
<path d="M8 15.1111V17.7778C8 18.485 8.28095 19.1633 8.78105 19.6634C9.28115 20.1635 9.95942 20.4444 10.6667 20.4444C11.3739 20.4444 12.0522 20.1635 12.5523 19.6634C13.0524 19.1633 13.3333 18.485 13.3333 17.7778V15.1111H8Z" fill="#EA596E"/>
<path d="M10.6666 14.2222H13.3333V16.8889H10.6666V14.2222Z" fill="#F4A2B2"/>
<path d="M8 14.2222H10.6667V16.8889H8V14.2222Z" fill="#DD2E44"/>
<path d="M10.6667 14.2222C12.1394 14.2222 13.3333 13.6253 13.3333 12.8889C13.3333 12.1525 12.1394 11.5556 10.6667 11.5556C9.19391 11.5556 8 12.1525 8 12.8889C8 13.6253 9.19391 14.2222 10.6667 14.2222Z" fill="#EA596E"/>
<path d="M10.6667 12.8889C12.1394 12.8889 13.3333 12.5904 13.3333 12.2222C13.3333 11.854 12.1394 11.5556 10.6667 11.5556C9.19391 11.5556 8 11.854 8 12.2222C8 12.5904 9.19391 12.8889 10.6667 12.8889Z" fill="#FFAC33"/>
<path d="M6.22229 14.2222H7.11118V20.4445H6.22229V14.2222ZM14.2223 14.2222H15.1112V20.4445H14.2223V14.2222Z" fill="#99AAB5"/>
<path d="M5.33337 19.5556H8.00004V20.4445H5.33337V19.5556ZM13.3334 19.5556H16V20.4445H13.3334V19.5556ZM6.22226 13.3333H7.11115V14.2222H6.22226V13.3333ZM14.2223 13.3333H15.1112V14.2222H14.2223V13.3333Z" fill="#66757F"/>
</svg>
