<svg width="32" height="32" viewBox="0 0 32 32" fill="none" xmlns="http://www.w3.org/2000/svg">
<g clip-path="url(#clip0_2301_10137)">
<path d="M32 24C32 24.943 31.6254 25.8473 30.9586 26.5141C30.2918 27.1809 29.3875 27.5555 28.4445 27.5555H21.3334V4.44443H28.4445C29.3875 4.44443 30.2918 4.81903 30.9586 5.48583C31.6254 6.15262 32 7.05699 32 7.99998V24Z" fill="#ED2939"/>
<path d="M3.55556 4.44443C2.61256 4.44443 1.70819 4.81903 1.0414 5.48583C0.374602 6.15262 0 7.05699 0 7.99998L0 24C0 24.943 0.374602 25.8473 1.0414 26.5141C1.70819 27.1809 2.61256 27.5555 3.55556 27.5555H10.6667V4.44443H3.55556Z" fill="#002495"/>
<path d="M10.6666 4.44443H21.3333V27.5555H10.6666V4.44443Z" fill="#EEEEEE"/>
</g>
<defs>
<clipPath id="clip0_2301_10137">
<rect width="32" height="32" fill="white"/>
</clipPath>
</defs>
</svg>
