<svg width="33" height="32" viewBox="0 0 33 32" fill="none" xmlns="http://www.w3.org/2000/svg">
<path opacity="0.4" d="M25.8334 13.7066V23.2399C25.7934 27.0399 24.7533 27.9999 20.7933 27.9999H8.20673C4.18006 27.9999 3.16669 26.9999 3.16669 23.0266V13.7066C3.16669 10.1066 4.00669 8.94661 7.16669 8.75994C7.48669 8.74661 7.83339 8.73328 8.20673 8.73328H20.7933C24.82 8.73328 25.8334 9.73328 25.8334 13.7066Z" fill="#51BCF6"/>
<path d="M29.8334 8.97333V18.2933C29.8334 21.8933 28.9934 23.0533 25.8334 23.24V13.7067C25.8334 9.73333 24.82 8.73333 20.7933 8.73333H8.20673C7.83339 8.73333 7.48669 8.74667 7.16669 8.76C7.20669 4.96 8.24673 4 12.2067 4H24.7933C28.82 4 29.8334 5 29.8334 8.97333Z" fill="#07112B"/>
<path d="M9.78001 24.7467H7.48663C6.93997 24.7467 6.48663 24.2934 6.48663 23.7467C6.48663 23.2 6.93997 22.7467 7.48663 22.7467H9.78001C10.3267 22.7467 10.78 23.2 10.78 23.7467C10.78 24.2934 10.34 24.7467 9.78001 24.7467Z" fill="#07112B"/>
<path d="M17.2333 24.7467H12.6467C12.1 24.7467 11.6467 24.2934 11.6467 23.7467C11.6467 23.2 12.1 22.7467 12.6467 22.7467H17.2333C17.78 22.7467 18.2333 23.2 18.2333 23.7467C18.2333 24.2934 17.7933 24.7467 17.2333 24.7467Z" fill="#07112B"/>
<path d="M25.8334 15.8134H3.16669V17.8134H25.8334V15.8134Z" fill="#07112B"/>
</svg>
