<svg width="42" height="41" viewBox="0 0 42 41" fill="none" xmlns="http://www.w3.org/2000/svg">
<path opacity="0.4" d="M29.1834 10.707L19.1716 7.18453C14.8324 5.65784 11.3172 7.3328 9.78611 11.6846L6.26807 21.6838C4.73253 26.0482 6.42449 29.5552 10.7638 31.0819L20.7629 34.6C25.1148 36.1311 28.6173 34.4517 30.1485 30.0998L33.6709 20.0881C35.2146 15.7407 33.5227 12.2337 29.1834 10.707Z" fill="#51BCF6"/>
<path d="M36.1602 13.1334C34.7054 10.0773 32.522 9.2526 29.3935 10.7526L27.4766 11.6613C27.3066 11.7428 27.2069 11.9056 27.1997 12.0868C26.9959 15.4781 28.5938 18.8106 31.3655 20.7752C31.3988 20.8011 31.4617 20.8232 31.4995 20.8365C31.6252 20.8807 31.7687 20.8747 31.8877 20.8176L33.7795 19.9001C35.3267 19.1583 36.2777 18.2631 36.6715 17.1437C37.0698 16.0118 36.8977 14.6932 36.1602 13.1334Z" fill="#07112B"/>
<path d="M28.8934 21.0927C28.6113 20.8097 28.3418 20.5312 28.1063 20.2363C27.9079 19.9969 27.7138 19.7449 27.5368 19.4847C27.3798 19.2881 27.2198 19.0198 27.0598 18.7515C27.0391 18.7301 26.9857 18.6406 26.9205 18.5046C26.6412 18.053 26.3766 17.4793 26.1505 16.8768C26.1342 16.8427 26.0852 16.7407 26.0622 16.6054C25.9851 16.4228 25.8805 16.1174 25.8099 15.7958C25.7335 15.571 25.6585 15.2619 25.6005 14.9447C25.5225 14.5639 25.4696 14.1919 25.4337 13.8118C25.3941 13.4021 25.3834 13.0308 25.3808 12.6766L16.2333 17.0626C15.6382 17.3479 14.9185 18.0276 14.6137 18.6129L12.7541 22.1707C12.3621 22.9233 12.3149 23.7406 12.6328 24.4037C12.9018 24.9648 13.3926 25.3777 14.0215 25.599C14.1598 25.6477 14.3026 25.6838 14.4454 25.7199L18.3668 26.5059C19.0141 26.6347 19.9902 26.5117 20.5897 26.2138L29.7372 21.8278C29.4582 21.6165 29.1924 21.3676 28.8934 21.0927Z" fill="#07112B"/>
</svg>
