<svg width="52" height="52" viewBox="0 0 52 52" fill="none" xmlns="http://www.w3.org/2000/svg">
<rect x="2" y="2" width="48" height="48" rx="24" fill="#D5ECF8"/>
<rect x="2" y="2" width="48" height="48" rx="24" stroke="#07112B" stroke-width="2.4"/>
<path opacity="0.4" d="M37.04 24.2172L35.92 28.9943C34.96 33.12 33.0628 34.7886 29.4971 34.4457C28.9257 34.4 28.3085 34.2972 27.6457 34.1372L25.7257 33.68C20.96 32.5486 19.4857 30.1943 20.6057 25.4172L21.7257 20.6286C21.9542 19.6572 22.2285 18.8114 22.5714 18.1143C23.9085 15.3486 26.1828 14.6057 30 15.5086L31.9085 15.9543C36.6971 17.0743 38.16 19.44 37.04 24.2172Z" fill="#51BCF6"/>
<path d="M29.4971 34.4457C28.7885 34.9257 27.8971 35.3257 26.8114 35.68L25.0057 36.2743C20.4685 37.7371 18.0799 36.5143 16.6057 31.9771L15.1428 27.4628C13.6799 22.9257 14.8914 20.5257 19.4285 19.0628L21.2342 18.4685C21.7028 18.32 22.1485 18.1943 22.5714 18.1143C22.2285 18.8114 21.9542 19.6571 21.7257 20.6285L20.6057 25.4171C19.4857 30.1943 20.9599 32.5485 25.7257 33.68L27.6457 34.1371C28.3085 34.2971 28.9257 34.4 29.4971 34.4457Z" fill="#07112B"/>
<path d="M32.2743 24.2972C32.2057 24.2972 32.1371 24.2857 32.0571 24.2743L26.5143 22.8686C26.0571 22.7543 25.7828 22.2857 25.8971 21.8286C26.0114 21.3715 26.48 21.0972 26.9371 21.2115L32.48 22.6172C32.9371 22.7315 33.2114 23.2 33.0971 23.6572C33.0057 24.0343 32.6514 24.2972 32.2743 24.2972Z" fill="#07112B"/>
<path d="M28.9257 28.16C28.8571 28.16 28.7886 28.1486 28.7086 28.1372L25.3829 27.2914C24.9257 27.1772 24.6514 26.7086 24.7657 26.2514C24.88 25.7943 25.3486 25.52 25.8057 25.6343L29.1314 26.48C29.5886 26.5943 29.8629 27.0629 29.7486 27.52C29.6571 27.9086 29.3143 28.16 28.9257 28.16Z" fill="#07112B"/>
</svg>
