<svg width="36" height="37" viewBox="0 0 36 37" fill="none" xmlns="http://www.w3.org/2000/svg">
<path d="M18 22.0911C14.805 22.0911 12.195 19.4961 12.195 16.2861C12.195 13.0761 14.805 10.4961 18 10.4961C21.195 10.4961 23.805 13.0911 23.805 16.3011C23.805 19.5111 21.195 22.0911 18 22.0911ZM18 12.7461C16.05 12.7461 14.445 14.3361 14.445 16.3011C14.445 18.2661 16.035 19.8561 18 19.8561C19.965 19.8561 21.555 18.2661 21.555 16.3011C21.555 14.3361 19.95 12.7461 18 12.7461Z" fill="#D5ECF8"/>
<path d="M18 34.9764C15.78 34.9764 13.545 34.1364 11.805 32.4714C7.37999 28.2114 2.48999 21.4164 4.33499 13.3314C5.99999 5.99643 12.405 2.71143 18 2.71143C18 2.71143 18 2.71143 18.015 2.71143C23.61 2.71143 30.015 5.99643 31.68 13.3464C33.51 21.4314 28.62 28.2114 24.195 32.4714C22.455 34.1364 20.22 34.9764 18 34.9764ZM18 4.96143C13.635 4.96143 8.02499 7.28643 6.53999 13.8264C4.91999 20.8914 9.35999 26.9814 13.38 30.8364C15.975 33.3414 20.04 33.3414 22.635 30.8364C26.64 26.9814 31.08 20.8914 29.49 13.8264C27.99 7.28643 22.365 4.96143 18 4.96143Z" fill="#D5ECF8"/>
</svg>
