<svg width="32" height="32" viewBox="0 0 32 32" fill="none" xmlns="http://www.w3.org/2000/svg">
<path opacity="0.4" d="M28.88 13.9201L27.5733 19.4934C26.4533 24.3067 24.24 26.2534 20.08 25.8534C19.4133 25.8001 18.6933 25.6801 17.92 25.4934L15.68 24.9601C10.12 23.6401 8.39999 20.8934 9.70665 15.3201L11.0133 9.73339C11.28 8.60005 11.6 7.61338 12 6.80005C13.56 3.57338 16.2133 2.70672 20.6667 3.76005L22.8933 4.28005C28.48 5.58672 30.1867 8.34672 28.88 13.9201Z" fill="#51BCF6"/>
<path d="M20.08 25.8533C19.2533 26.4133 18.2133 26.8799 16.9467 27.2933L14.84 27.9866C9.54666 29.6933 6.76 28.2666 5.04 22.9733L3.33333 17.7066C1.62666 12.4133 3.04 9.61326 8.33333 7.90659L10.44 7.21326C10.9867 7.03993 11.5067 6.89326 12 6.79993C11.6 7.61326 11.28 8.59993 11.0133 9.73326L9.70666 15.3199C8.4 20.8933 10.12 23.6399 15.68 24.9599L17.92 25.4933C18.6933 25.6799 19.4133 25.7999 20.08 25.8533Z" fill="#07112B"/>
<path d="M23.32 14.0134C23.24 14.0134 23.16 14.0001 23.0667 13.9867L16.6 12.3467C16.0667 12.2134 15.7467 11.6667 15.88 11.1334C16.0133 10.6001 16.56 10.2801 17.0933 10.4134L23.56 12.0534C24.0933 12.1867 24.4133 12.7334 24.28 13.2667C24.1733 13.7067 23.76 14.0134 23.32 14.0134Z" fill="#07112B"/>
<path d="M19.4133 18.52C19.3333 18.52 19.2533 18.5066 19.16 18.4933L15.28 17.5066C14.7467 17.3733 14.4267 16.8266 14.56 16.2933C14.6933 15.76 15.24 15.44 15.7733 15.5733L19.6533 16.56C20.1867 16.6933 20.5067 17.24 20.3733 17.7733C20.2667 18.2266 19.8667 18.52 19.4133 18.52Z" fill="#07112B"/>
</svg>
