<svg width="36" height="37" viewBox="0 0 36 37" fill="none" xmlns="http://www.w3.org/2000/svg">
<path d="M12.5704 14.1165C13.6144 16.2909 15.0376 18.3288 16.84 20.1312C18.6423 21.9336 20.6803 23.3568 22.8547 24.4008C23.0418 24.4906 23.1353 24.5355 23.2536 24.57C23.6741 24.6925 24.1905 24.6045 24.5467 24.3495C24.6469 24.2777 24.7326 24.192 24.9041 24.0205C25.4285 23.4961 25.6907 23.2339 25.9544 23.0625C26.9487 22.416 28.2306 22.416 29.2249 23.0625C29.4886 23.2339 29.7508 23.4961 30.2752 24.0205L30.5675 24.3128C31.3647 25.11 31.7632 25.5086 31.9798 25.9366C32.4104 26.788 32.4104 27.7934 31.9798 28.6447C31.7632 29.0728 31.3647 29.4714 30.5675 30.2685L30.331 30.505C29.5366 31.2994 29.1394 31.6966 28.5993 32C28.0001 32.3366 27.0694 32.5787 26.382 32.5766C25.7626 32.5748 25.3393 32.4546 24.4926 32.2143C19.9425 30.9229 15.649 28.4862 12.067 24.9042C8.48502 21.3222 6.04831 17.0287 4.75685 12.4786C4.51654 11.6319 4.39639 11.2086 4.39454 10.5892C4.3925 9.90182 4.63454 8.97108 4.97117 8.37182C5.27454 7.83178 5.67176 7.43456 6.4662 6.64013L6.70265 6.40367C7.49981 5.60651 7.89839 5.20793 8.32646 4.99141C9.17781 4.56081 10.1832 4.56081 11.0345 4.99141C11.4626 5.20793 11.8612 5.60651 12.6584 6.40367L12.9507 6.69598C13.4751 7.22039 13.7373 7.48259 13.9087 7.74626C14.5552 8.74059 14.5552 10.0225 13.9087 11.0168C13.7373 11.2805 13.4751 11.5427 12.9507 12.0671C12.7792 12.2385 12.6935 12.3243 12.6217 12.4245C12.3667 12.7806 12.2786 13.297 12.4012 13.7176C12.4357 13.8359 12.4806 13.9294 12.5704 14.1165Z" stroke="#D5ECF8" stroke-width="3" stroke-linecap="round" stroke-linejoin="round"/>
</svg>
