<svg width="33" height="32" viewBox="0 0 33 32" fill="none" xmlns="http://www.w3.org/2000/svg">
<path d="M29.8333 7.99996V11.2266C29.8333 13.3333 28.4999 14.6666 26.3933 14.6666H21.8333L21.8333 5.34663C21.8333 3.86663 23.0466 2.66663 24.5266 2.66663C25.98 2.67996 27.3133 3.26663 28.2733 4.22663C29.2333 5.19996 29.8333 6.53329 29.8333 7.99996Z" fill="#07112B"/>
<path opacity="0.4" d="M3.1666 9.33329L3.1666 28C3.1666 29.1066 4.41994 29.7333 5.29994 29.0666L7.57993 27.36C8.11326 26.96 8.85993 27.0133 9.33993 27.4933L11.5533 29.72C12.0733 30.24 12.9266 30.24 13.4466 29.72L15.6866 27.48C16.1533 27.0133 16.8999 26.96 17.4199 27.36L19.6999 29.0666C20.5799 29.72 21.8333 29.0933 21.8333 28L21.8333 5.33329C21.8333 3.86663 23.0333 2.66663 24.4999 2.66663L9.83326 2.66663H8.49993C4.49993 2.66663 3.1666 5.05329 3.1666 7.99996V9.33329Z" fill="#51BCF6"/>
<path d="M16.4999 13L8.49991 13C7.95324 13 7.49991 12.5467 7.49991 12C7.49991 11.4533 7.95324 11 8.49991 11L16.4999 11C17.0466 11 17.4999 11.4533 17.4999 12C17.4999 12.5467 17.0466 13 16.4999 13Z" fill="#07112B"/>
<path d="M15.5 18.3333H9.49997C8.9533 18.3333 8.49997 17.8799 8.49997 17.3333C8.49997 16.7866 8.9533 16.3333 9.49997 16.3333H15.5C16.0466 16.3333 16.5 16.7866 16.5 17.3333C16.5 17.8799 16.0466 18.3333 15.5 18.3333Z" fill="#07112B"/>
</svg>
