<svg width="49" height="33" viewBox="0 0 49 33" fill="none" xmlns="http://www.w3.org/2000/svg">
<path d="M26.6338 11.1763C26.6338 5.25715 31.4324 0.458984 37.3511 0.458984C43.2702 0.458984 48.0684 5.25715 48.0684 11.1763C48.0684 17.0954 43.2698 21.8935 37.3511 21.8935C36.6708 21.8935 36.0064 21.8272 35.3617 21.7062C36.5078 24.9863 38.1321 28.6987 40.4331 32.459C40.4331 32.459 27.4991 28.2085 26.6482 11.7475L26.6494 11.7471C26.6394 11.5586 26.6338 11.368 26.6338 11.1763Z" fill="#47B9F7"/>
<path d="M0.64459 11.1763C0.64459 5.25715 5.44315 0.458984 11.3619 0.458984C17.281 0.458984 22.0791 5.25715 22.0791 11.1763C22.0791 17.0954 17.2806 21.8935 11.3619 21.8935C10.6815 21.8935 10.0172 21.8272 9.37243 21.7062C10.5185 24.9863 12.1428 28.6987 14.4438 32.459C14.4438 32.459 1.50985 28.2085 0.658951 11.7475L0.660172 11.7471C0.650183 11.5586 0.64459 11.368 0.64459 11.1763Z" fill="#47B9F7"/>
</svg>
